<?xml version="1.0" encoding="UTF-8"?>
<svg xmlns="http://www.w3.org/2000/svg" width="500" height="386" viewBox="165 235 500 386"><path class="st0" d="M331 445.3c7.2-15.8 3.2-18.7-13.3-18.7l-15 32.8h13c4.8 0 10-2.5 15.3-14.1zm-15.2 10.2h-6.9l11.4-24.9c10.2 0 13 .4 7.2 13.1-3.9 8.3-7.7 11.8-11.7 11.8z" fill="#FFF"/><path class="st0" d="M402 620c53 0 89.5-46.1 104.5-91.7h-62.1S433.9 556 411.6 556c-11.7 0-15.6-13.6 1.5-51.1 11.6-25.4 27.9-41.5 40.1-41.5 18.3 0-2.7 59.2-2.7 59.2h59.2l33.8-74.2c9.8 5.1 20.9 9.8 32.5 9.8 33 0 42.4-25.9 42.4-25.9l-8.1-4.5c7.5-17.5 9.8-27.6 6.2-36.6 5.6-5.5 11.2-13.4 12.4-23.8 0 0 34.7-22 34.7-53.7 0-10.3-21.5-32.2-60.8-44.5-8.4-9.1-37-34.3-93.2-34.2-23.7 0-45.9 3.1-62.5 6.2-19.1-4.8-34.4-6.5-46.4-6.5-30.9 0-40.4 7.2-40.4 19.8 0 13.6 5.4 23.3 5.4 23.3-14.3 8.7-31 20.2-40 26.6h-65.5l-26.5 58.1h26.9L221 449.7c-1.1 2.4-4.6 5.7-29.6 5.7L165 513.5h153.5C307.1 571.3 339.9 620 402 620zM171.1 509.6l22.9-50.2c16.4 0 27.7-1.6 30.6-8.1l42.1-92.5h-26.9l22.9-50.2h64.2c9.3-6.6 28.6-20 43.9-29 0 0-6.6-9.8-6.6-24.3 0-15.5 22.1-16.4 37-16.4 21.8 0 45.8 6.6 45.8 6.6 16.5-3.2 38.9-6.3 62.7-6.3 56.8 0 84.2 26.1 91 33.7 35.5 10.5 59.1 32.2 59.1 41 0 30.4-34.5 51.3-34.5 51.3-1.2 21.8-24.5 32.7-24.5 32.7s6.7-14.3 3.6-24.8c-3.8.7-7.7 1.1-11.9 1.1-9.3 0-23.6-7.4-33.8-7.4-10.2 0-10.5 2.1-10.5 2.1 0 5.2.1 9.7.4 13.6 23.7 4.5 28.7 20.1 41.5 34.3 2.7-2 15.2-10 23.9-20.4 0 0 2.9 9.6-8.8 33.3l8.1 4.5s-9.3 20.3-37.3 20.3c-11.9 0-23.9-5.6-34.3-11.3l-34.5 75.7H456s20.8-59.2-2.8-59.2c-14.2 0-31.6 17.3-43.6 43.8-14.3 31.3-17.7 56.6 2.1 56.6 19.4 0 31-18.1 35.3-27.7h54s-28.1 83.8-98.9 83.8c-70.7 0-91.3-62.7-78.6-106.5H171.1zM605 400.1l-14.4 11.5c-11.7-14.1-14.4-25.6-38.3-32.3-.1-2.5-.2-5.1-.2-8 1.2-.2 3.3-.5 6.5-.5 9 0 24.1 7.4 33.8 7.4 3 0 5.9-.2 8.7-.5 1 11.8-8.5 28.5-8.5 28.5l12.4-6.1z" fill="#FFF"/><path class="st0" d="M351.6 367.2c3.6-7.9 2.1-8.3-1.7-8.3h-1.3l-7.5 16.4c2.8 0 7-.4 10.5-8.1zm194.8 102.4h1.5v-3.3h1.1l1.6 3.3h1.7l-1.6-3.5c.9-.3 1.6-1.2 1.6-2.3 0-1.4-1.1-2.4-2.4-2.4h-3.5v8.2zm1.6-6.7h1.9c.5 0 .9.4.9.9s-.4.9-.9.9H548v-1.8z" fill="#FFF"/><path class="st0" d="M542.2 465.4c0 4 3.2 7.2 7.2 7.2s7.2-3.2 7.2-7.2-3.2-7.2-7.2-7.2-7.2 3.3-7.2 7.2zm12.9 0c0 3.1-2.5 5.7-5.7 5.7-3.1 0-5.7-2.5-5.7-5.7 0-3.1 2.5-5.7 5.7-5.7 3.1.1 5.7 2.6 5.7 5.7z" fill="#FFF"/><path class="st1" d="M644.4 304.9c-2.5 1-9.8 4.7-9.8 12.8 0 7 6.1 16.4 3.2 27.7 9.3-10.5 14.4-22.8 14.4-31.5 0 0-2.2-3.8-7.8-9zm-95.1 85.3c1.3 9.9 3.6 14.8 6 18.2 1.5-.3 10.1-1.8 10.1-1.8s1.8 8.8 2.1 10.1c3.1 0 11-.2 11-.2s2.6 5.6 2.8 6.1c.8-.5 1.6-1 2.5-1.6-9-9.5-14.9-26.4-34.5-30.8zm-231 20.8h-10.6l-29.3 64h37.3c10.1 0 21.1-5.1 29.4-23.3 14.3-31-3.8-40.7-26.8-40.7zm19.4 37.4c-7 15.3-15.1 18.4-22 18.4h-24.6l21.7-47.7h5.4c19.2.1 30.2 6 19.5 29.3zm12.2-105.1h-11.4l-21.8 47.9h18.8c21 0 26.4-9 30.3-17.5 10.3-22.5-3.7-30.4-15.9-30.4zm8.5 27c-4.9 10.7-11 12.7-22.8 12.7h-6.1l14.3-31.5h6.1c7.6 0 15.6 3.1 8.5 18.8z" fill="#F15623"/><path class="st1" d="M638.9 300.1c-8.8-7-22.4-15.1-42.5-20.7 0 0-24.6-32.8-86.8-32.8-18.4 0-33.9 1.5-46.5 3.5 6 1.9 12.1 4.1 18.5 6.5l-2.6 6.9c-77.8-29.7-107-12.2-107-12.2-4.8 32.8 42.1 60.4 42.1 60.4l-3.8 6.4c-1.4-.8-22.3-13.3-35.5-32.2-16.2 9.6-37.6 24.6-45.5 30.2h-61.8l-16.1 35.4h19.2c4.2 0 6.3 3.2 4.5 7l-43.7 96c-5.4 11.9-25.2 12.4-32.6 12.4l-16.1 35.4h151.1c-17.8 46.3 2.3 106.5 68.6 106.5 45.6 0 75.6-40.7 87.5-69h-38.2s-13.3 27.7-40 27.7c-24.9 0-27.1-26.9-8.8-67.1 13-28.5 32.1-48.1 50.4-48.1 31.9 0 13 59.2 13 59.2h36.2l35.8-78.7c11.4 6.4 25.1 14.3 37.8 14.3 18.7 0 26.3-10.5 26.3-10.5l-6.9-3.8 8.3-17.3c-15.9 13.5-25.9 17.4-25.9 17.4l-4.1-8.8-12.3.2-1.8-9-7.3 1.3c-5.7-6.5-11.6-13.9-11.6-47.6 0-7.5 1.5-11 7.1-11 2.7 0 10.5 1.8 15 3-3.3-4.7-5.5-11.1-5.5-19.6 0-20.9 12-27.4 20.4-29.4v-7.1c0-2 1.7-3.7 3.7-3.7s3.7 1.7 3.7 3.7v13.6s-20.4-1.5-20.4 22.9c0 10.7 5.3 25.5 27.5 25.5 6.3 0 12.1-1 17.5-2.7 3.4 8.2 1 18.4 1 18.4s6.4-8.3 11.3-23.9c3.3-2 6.3-4.2 9.1-6.6.8-2.2 1.6-5.5 1.6-9.9 0-10.5-5.3-19.1-5.3-24.2.1-6 7.3-9.6 11.4-17.9zm-197 87.1s9.9 22.1 21 30.4c0 0-13.8 4.1-25.8-28.3l4.8-2.1zm55.2 116h-20.3s15.5-59.2-23.6-59.2c-23.4 0-44.6 23.9-57.8 52.9-23.3 51.1-12.8 78.7 16.3 78.7s44.8-27.7 44.8-27.7h20.3s-25.8 52.6-74.1 52.6c-60.7 0-79.4-55.8-58.9-101 .8-1.9 1.7-3.7 2.6-5.5h-151l8.6-19s26.9 0 34.8-17.2l44.4-97.4c7.8-17.2-2.3-17.2-2.3-17.2h-16.8l8.6-18.9h110c23.2 0 36.2 29.1 25.5 52.4-8.8 19.3-26.2 26.2-26.2 26.2s15.5 5.7 18.1 24.4c12.1-6.1 26.5-9.3 44.3-9.3 30.5 0 43.3 16.9 54 16.9 9.3 0 13.8-9.7 13.8-9.7h20.3l-35.4 78zm84.3-209.5c-1.7.2-3.3-1.1-3.5-2.8l-.7-6.3c-20.3-5.6-30.8-1.5-30.8-1.5l-2.6-4.5c27.1-8.2 39.1.4 39.1.4l1.3 11.3c.2 1.6-1.1 3.2-2.8 3.4z" fill="#F15623"/><path d="M358.4 370.3c7.1-15.7-.8-18.8-8.5-18.8h-6.1L329.5 383h6.1c11.8-.1 17.9-2 22.8-12.7zm-17.3 5l7.5-16.4h1.3c3.9 0 5.4.4 1.7 8.3-3.5 7.7-7.7 8.1-10.5 8.1zm-22.8 43.9h-5.4l-21.7 47.7h24.6c6.8 0 15-3.1 22-18.4 10.6-23.4-.4-29.3-19.5-29.3zm12.7 26.1c-5.3 11.5-10.5 14.1-15.2 14.1h-13l15-32.8c16.4 0 20.4 2.9 13.2 18.7zm132-27.7c-11.1-8.3-21-30.4-21-30.4l-4.8 2.1c12 32.4 25.8 28.3 25.8 28.3z"/><path d="M402.1 616.1c70.8 0 98.9-83.8 98.9-83.8h-54c-4.4 9.6-16 27.7-35.3 27.7-19.7 0-16.3-25.4-2.1-56.6 12.1-26.5 29.5-43.8 43.6-43.8 23.6 0 2.8 59.2 2.8 59.2h51.1l34.5-75.7c10.4 5.7 22.5 11.3 34.3 11.3 27.9 0 37.3-20.3 37.3-20.3l-8.1-4.5c11.7-23.7 8.8-33.3 8.8-33.3-8.6 10.4-21.2 18.5-23.9 20.4-12.8-14.2-17.7-29.7-41.5-34.3-.3-3.9-.4-8.4-.4-13.6 0 0 .3-2.1 10.5-2.1s24.5 7.4 33.8 7.4c4.1 0 8.1-.4 11.9-1.1 3.1 10.5-3.6 24.8-3.6 24.8s23.3-10.9 24.5-32.7c0 0 34.5-20.9 34.5-51.3 0-8.8-23.6-30.5-59.1-41-6.8-7.7-34.2-33.7-91-33.7-23.8 0-46.2 3.1-62.7 6.3 0 0-24-6.6-45.8-6.6-14.8 0-37 .9-37 16.4 0 14.5 6.6 24.3 6.6 24.3-15.3 9-34.6 22.5-43.9 29h-64.2l-22.9 50.2h26.9l-42.1 92.5c-2.9 6.4-14.2 8.1-30.6 8.1L171 509.5h152.5c-12.6 43.9 8 106.6 78.6 106.6zM583.8 421c-.9.6-1.7 1.1-2.5 1.6-.3-.5-2.8-6.1-2.8-6.1s-7.9.1-11 .2c-.3-1.3-2.1-10.1-2.1-10.1s-8.7 1.6-10.1 1.8c-2.4-3.4-4.7-8.2-6-18.2 19.6 4.4 25.5 21.3 34.5 30.8zm68.4-107.1c0 8.7-5.1 21-14.4 31.5 2.9-11.3-3.2-20.7-3.2-27.7 0-8.2 7.3-11.8 9.8-12.8 5.6 5.2 7.8 9 7.8 9zM182.7 502.2l16.1-35.4c7.4 0 27.2-.5 32.6-12.4l43.7-96c1.8-3.9-.3-7-4.5-7h-19.2l16.1-35.4h61.8c7.9-5.6 29.3-20.6 45.5-30.2 13.2 18.9 34.2 31.4 35.5 32.2l3.8-6.4s-46.9-27.5-42.1-60.4c0 0 29.1-17.5 107 12.2l2.6-6.9c-6.3-2.4-12.5-4.6-18.5-6.5 12.6-2.1 28.1-3.5 46.5-3.5 62.2 0 86.8 32.8 86.8 32.8 20.1 5.6 33.8 13.7 42.5 20.7-4.1 8.3-11.3 11.9-11.3 17.6 0 5.2 5.3 13.7 5.3 24.2 0 4.4-.8 7.7-1.6 9.9-2.8 2.4-5.8 4.7-9.1 6.6-4.8 15.6-11.3 23.9-11.3 23.9s2.4-10.2-1-18.4c-5.4 1.7-11.3 2.7-17.5 2.7-22.2 0-27.5-14.8-27.5-25.5 0-24.4 20.4-22.9 20.4-22.9v-13.6c0-2-1.7-3.7-3.7-3.7s-3.7 1.7-3.7 3.7v7.1c-8.4 2-20.4 8.6-20.4 29.4 0 8.6 2.2 14.9 5.5 19.6-4.5-1.1-12.3-3-15-3-5.7 0-7.1 3.4-7.1 11 0 33.6 5.9 41 11.6 47.6l7.3-1.3 1.8 9 12.3-.2 4.1 8.8s10.1-3.9 25.9-17.4l-8.3 17.3 6.9 3.8s-7.6 10.5-26.3 10.5c-12.7 0-26.4-7.9-37.8-14.3l-35.8 78.7h-36.2s18.9-59.2-13-59.2c-18.3 0-37.4 19.6-50.4 48.1-18.3 40.2-16.1 67.1 8.8 67.1 26.7 0 40-27.7 40-27.7H490c-11.9 28.3-41.9 69-87.5 69-66.3 0-86.4-60.2-68.6-106.5H182.7z"/><path d="M577.2 284.6l.7 6.3c.2 1.7 1.8 3 3.5 2.8 1.8-.2 3-1.8 2.8-3.5l-1.3-11.3s-12-8.6-39.1-.4l2.6 4.5c-.1 0 10.5-4 30.8 1.6zM343.8 499.5c-20.6 45.1-1.8 101 58.9 101 48.3 0 74.1-52.6 74.1-52.6h-20.3s-15.7 27.7-44.8 27.7c-29.1 0-39.6-27.6-16.3-78.7 13.2-29 34.5-52.9 57.8-52.9 39.1 0 23.6 59.2 23.6 59.2h20.3l35.5-77.9h-20.3s-4.4 9.7-13.8 9.7c-10.7 0-23.5-16.9-54-16.9-17.8 0-32.2 3.3-44.3 9.3-2.6-18.7-18.1-24.4-18.1-24.4s17.4-7 26.2-26.2c10.6-23.3-2.3-52.4-25.5-52.4h-110l-8.6 18.9H281s10.2 0 2.3 17.2l-44.4 97.4C231 475 204 475 204 475l-8.6 18.9h150.9c-.8 1.9-1.7 3.7-2.5 5.6zm-5.3-156.2h11.4c12.2 0 26.2 8 16 30.4-3.9 8.5-9.3 17.5-30.3 17.5h-18.8l21.7-47.9zm6.7 108.5c-8.3 18.2-19.4 23.3-29.4 23.3h-37.3l29.2-64.1h10.6c23 0 41.1 9.7 26.9 40.8z"/></svg>