<?xml version="1.0" encoding="UTF-8"?>
<svg xmlns="http://www.w3.org/2000/svg" viewBox="-180 316.8 250 161.2"><path class="st0" d="M37.4 397.4c0 42.8-34.8 77.7-77.7 77.7-42.8 0-77.7-34.8-77.7-77.7s34.8-77.7 77.7-77.7c42.8 0 77.7 34.9 77.7 77.7zm-77.7-79.9c-44 0-79.9 35.8-79.9 79.9s35.8 79.9 79.9 79.9 79.9-35.8 79.9-79.9-35.9-79.9-79.9-79.9z" fill="#231F20"/><path class="st1" d="M31 397.4c0 39.3-32 71.3-71.3 71.3s-71.3-32-71.3-71.3 32-71.3 71.3-71.3 71.3 32 71.3 71.3z" fill="#E31837"/><path class="st0" d="M69.1 369.4c0-.5-.3-.9-.6-1.2-1.6-1.5-3.1-3.2-4.5-4.9-1.4-1.8-2.7-3.7-3.8-5.8-1.1-2.1-2.2-4.3-3.1-6.6-.9-2.4-1.7-5-2.4-7.6-.1-.5-.4-.9-.8-1.1l-12.6-8.9c-.3-.2-.6-.4-.9-.7-.3-.3-.5-.6-.8-1-.2-.3-.5-.7-.8-1.1l-.6-.9-.2-.3c-.4-.6-.7-1.2-1.1-1.8-.5-.7-.9-1.3-1.4-1.7-.6-.6-1.2-1.1-1.9-1.5-.7-.4-1.5-.7-2.4-.8h-.1c-.3 0-.5 0-.9.1h-.1l-8.7 3.7c-.6.2-1 .8-1.2 1.4 0 .1-.1.2-.1.3l-.1.4c0 .2 0 .3-.1.4v.4c0 .3 0 .7.1 1.1 0 .3.1.6.2.9 0 .2.1.3.1.4-.9-.1-1.9-.3-3-.5s-2.3-.5-3.5-.8c-1.1-.3-2.1-.5-3.4-.9-.2-.1-.4-.1-.7-.1-.3 0-.6.1-.9.2-.2.1-.4.1-.7.2H8l-8.5 3.6h-.2c-.2 0-.3-.1-.5-.1-.3 0-.7-.1-1.1-.1h-.9c-.2 0-.2 0-.3-.1h-1.1c-.1 0-.3 0-.5.1-.1 0-.2.1-.3.1h-.1l-6 2.6c-.8-.1-1.5-.3-2.1-.3-1-.1-2-.2-2.8-.2h-1.4c-.5 0-1 .1-1.5.1-.5.1-1 .1-1.4.2-.5.1-1 .2-1.5.4-.1 0-.3.1-.4.2-.1 0-.1.1-.1.1-.1 0-.2 0-.3.1l-8 3.5c-.6.3-1.2.6-1.8 1-.6.4-1.1.8-1.6 1.2-.5.5-1 1-1.3 1.5-.4.7-.7 1.3-.7 2-.1.5.1 1.1.5 1.5l-3.3 1.4h-.1c-.1 0-.2.1-.2.1-.3.2-.5.4-.7.6-.1.1-.1.1-.1.2h-4.2l-6.3-.2v.1c-.5-.1-1.4-.1-3.1-.2l-3.1-.1v.1c-.5-.1-1.4-.1-3.2-.2l-6.5-.2-6.7-.1h-3.4c-1.1 0-2.3 0-3.4.1-1.2 0-2.4.1-3.5.2h-.3c-1.7.4-3.5 1-5.5 1.9-.1 0-.1 0-.2.1l-7.1 3.3c-1.5.7-3.1 1.6-4.8 2.6-1.5.9-2.9 2-4.5 3.2-.8.6-1.7 1.4-2.6 2.1-.1-.2-.3-.4-.4-.6-.3-.5-.6-1-.9-1.4-.4-.6-.7-1.2-1.1-1.8-.5-.7-.9-1.2-1.4-1.7-.6-.6-1.3-1-2-1.3-.8-.3-1.7-.5-2.6-.5l-1.5.1c-.2 0-.3.1-.4.1 0 0-.2 0-.2.1l-6.8 3.3c-.1 0-1.8.9-1.8.9l-2.6 1.3c-.6.3-1.2.5-1.7.8-4.3 1.9-8.7 3.7-13.2 5.3-4.4 1.6-8.8 3-13.2 4.3-4.4 1.2-8.7 2.3-12.9 3.1-.1 0-.2.1-.2.1-.1 0-.2 0-.3.1l-6 3c-.6.3-1 .9-1.1 1.6-.1.7.2 1.3.8 1.7.6.5 1.3.9 2 1.3s1.3.7 2.1 1c.6.3 1.3.6 2.1.8.6.2 1.2.4 1.7.6l.4.1c.1 0 .3.1.4.1l2 .7c.2.1.4.2.6.2.4.2.7.3 1 .4.1.1.3.1.5.1.5.1 1 .1 1.5.2s1 .1 1.5.2c.4 0 .9.1 1.5.1h2.1c1.1 0 2.4-.1 3.6-.2 1.4-.1 2.7-.3 4.1-.6 1.4-.3 2.7-.7 4-1.1 1.4-.5 2.7-1 3.9-1.5l6.5-2.9c.1 0 .2-.1.2-.1 1.7-.8 3.1-1.5 4.4-2.3 1-.6 2.1-1.4 3.2-2.2.2.1.4.1.6.2.3.1.7.3 1.1.5.3.1.6.3.9.5l.4.2c.4.2.7.4 1.1.6.5.3 1 .4 1.4.6.5.2 1 .4 1.6.5.4.1.7.1 1.1.2.6.4 1.1.9 1.5 1.5.4.6.8 1.3 1.1 2.2.3.8.5 1.7.6 2.8.2 1 .3 2 .4 3l.2 1.7c.1.4.1 1 .2 1.6.1.6.2 1.1.3 1.6.1.6.3 1.1.5 1.6 1 3 2.3 5.6 4.1 8 1.6 2.1 3.5 3.9 5.8 5.6 1.9 1.4 4 2.6 6.8 3.9l1.5.6c.3.1.6.3.9.4 0 0 3.2 1.4 4.8 2 2 .8 4.5 1.8 6.8 2.9 2.4 1.1 4.4 2.3 6.2 3.5 2 1.4 3.7 3 5.1 4.7 1.6 1.9 2.8 4.1 3.8 6.6.2.5.6.9 1 1.1 2 .9 4.1 1.7 6.4 2.5 2 .7 4.1 1.3 6.5 2 1.9.5 4.1 1.1 6.6 1.6l6.2 1.4 1.3.4.3 3c0 .2.1.4.1.6.1.2.1.4.2.5 0 .1.1.2.1.4v.2l-.1.1-.1.1c-.1 0-.1.1-.2.1l.2.3v.2l-.3-.3-3.7 1h-.6c-.1 0-.2.1-.3.1h-.1s-.1 0-.1.1h-.1s-.1 0-.1.1h-.1c-.1 0-.1.1-.2.1s-.2.1-.4.2c-.7.5-1.1 1.3-.9 2.2.3 1 .6 2.1 1.1 3.1.4 1 .9 1.9 1.5 2.8.6.9 1.2 1.7 1.9 2.4.7.8 1.4 1.4 2.2 2 .5.3 1.1.5 1.6.3l7.8-1.9h.2c.3-.1.6-.2.8-.5l.2-.2.1-.1c.1-.1.1-.2.2-.3.2-.5.5-.9.8-1.3.3-.4.6-.7 1-1l1.2-.9c.2-.1.4-.3.6-.4.2.6.4 1.3.6 1.9.3.9.7 1.6 1.1 2.1.6.8 1.3 1.4 2.1 1.8.6.3 1.2.5 1.7.6.1.4.3.7.5 1 .4.7.9 1.2 1.4 1.6.5.4 1.1.7 1.8.9.6.2 1.2.2 1.9.3h1.1c.3 0 .6-.1 1.1-.1.3-.1.7-.1 1-.2l.9-.2c.1 0 1.1-.2 1.1-.2.3 0 .6-.1.9-.1.3 0 .6-.1.8-.1h2.4l8.3-1.8c.1 0 .2-.1.2-.1.1 0 .2-.1.4-.2.1 0 .1-.1.2-.2s.2-.1.3-.3c.1-.1.1-.1.2-.3l.1-.2.1-.4c0-.1.1-.2.1-.3l.1-.2c0-.1.1-.3.1-.5v-.5c0-.4 0-.7-.1-1.1-.1-.3-.2-.6-.3-1-.1-.2-.2-.5-.4-.8-.1-.3-.3-.5-.4-.8l-.3-.6c-.1-.2-.2-.3-.2-.5 0-.1-.1-.2-.1-.4l.1-.1c.3-.3.5-.6.7-1 .2-.4.3-.8.4-1.2.1-.4.1-.8 0-1.2 0-.3-.1-.6-.3-.9-.4-.6-.8-1.2-1.3-1.8-.5-.6-1-1.1-1.5-1.6s-1-1-1.6-1.5c-.1-.1-1.7-1.5-1.7-1.5-1.2-1.1-2.4-2.1-3.5-3.2-1.1-1.2-2-2.2-2.6-3.3-.7-1.2-1-2.4-1.1-3.7-.1-.8 0-1.6.3-2.7h2.3l1.7.1c.2 0 .4 0 .5-.1l.3-.1c.2-.1.4-.1.6-.1.2 0 .4-.1.7-.1.2 0 .5 0 .7-.1h1.6c.3 0 .5 0 .8.1h.2c.3 0 .5.1.8.1h.2c.3 0 .7.1 1 .1.1 0 .9.1.9.1.5.1.8.1 1.1.1.3 0 .6.1 1 .1h1.8c.3 0 .5 0 .8-.1.2 0 .5-.1.8-.1.3-.1.6-.1.8-.2L16 429l.4-.1h.1s.1 0 .1-.1l.9-.3c.5-.2.9-.4 1.4-.7l.3-.3.8-.9c.5-.5.9-1 1.2-1.4.6-.7 1-1.3 1.3-2 .4-.8.7-1.7.7-2.5.1-1-.1-1.9-.5-2.8-.5-1.1-1-2.3-1.6-3.5-.6-1.1-1.2-2.3-1.9-3.5-.6-1-1.2-2.1-2-3.3l-2-3.2c0-.1-.2-.3-.2-.3l-1.8-2.9c-.7-1.2-1.4-2.3-1.9-3.3-.7-1.2-1.3-2.3-1.8-3.3s-1-2.1-1.4-3.2c0-.5-.1-.9-.1-1.5v-1.8c0-.6.1-1.2.1-1.9l.4-3.8c.1-.7.1-1.4.2-2 0-.6.1-1.2.1-1.8v-1.7c2-1.4 4-2.8 6.1-4.2 2.6-1.7 4.9-3 7.1-4.2.2-.1.5-.2.7-.3l.6-.3c.1 0 .1 0 .2-.1h.2c.8-.2 1.7-.3 2.5-.4.4-.1.8-.1 1.2-.1.3.7.7 1.3 1.1 1.8.7.9 1.5 1.6 2.5 2.2.8.5 1.7 1 2.8 1.4.9.3 1.7.6 2.8 1h.1c.9.3 1.8.6 2.7 1 .9.4 1.6.8 2.2 1.2.6.5 1.1 1 1.5 1.7.4.7.7 1.6.8 2.6 0 .3.1.6.3.8.3.4.5.8.9 1.1.3.3.7.6 1.1.8.4.2.8.3 1.2.4.3.1.7.1 1.1.1h.8c.3 0 .5-.1.8-.1.3 0 .6-.1.8-.1l.8-.2c.2 0 .4-.1.6-.1.3 0 .5-.1.7-.1.2 0 .5-.1.7-.1h.9c.2 0 .4 0 .6-.1l9.2-3c.1-.1.3-.1.3-.2 0 0 .1 0 .1-.1l.1-.1c.7-.5 1.3-.9 1.8-1.4.8-.7 1.5-1.4 2-2.2.7-.9 1.2-1.9 1.5-2.9-1.1-.8-.9-2.1-1.1-3.3zm-98.5 44.3l-6.5 2c-.1 0-.3.1-.4.2-.6.3-1.3.7-1.9 1.2-.7.4-1.4.9-2 1.4-.7.5-1.4 1-2.1 1.6-.2.1-.3.3-.5.4-.1-.1-.3-.2-.4-.3l-1.2-.9c-2.6-2.1-4.9-4.4-6.7-6.8-1.6-2-2.9-4.1-3.9-6.3 2.5.5 4.8.9 7.1 1.3 2.8.4 5.6.8 8.5 1.1 2.6.3 5.2.4 7.9.6.5.4.8.7 1 1.1.3.5.6 1 .8 1.6.2.6.3 1.2.4 1.9-.1-.2-.1-.2-.1-.1z" fill="#231F20"/><path class="st0" d="M68.2 368.5c-1.6-1.5-3.2-3.2-4.6-5-1.4-1.8-2.7-3.8-3.8-5.8-1.1-2.1-2.2-4.3-3.1-6.7-.9-2.4-1.7-5-2.4-7.7-.1-.3-.3-.6-.6-.8l-2.4-1.7-3.6-2.6-.6-.4-2.1-1.5-1.9-1.3-.7-.5-1.3-.9c-.4-.2-.7-.5-1-.8-.3-.3-.6-.6-.9-1-.3-.3-.5-.7-.8-1.2-.3-.4-.5-.8-.8-1.3-.3-.6-.7-1.2-1.1-1.8-.5-.7-.9-1.2-1.3-1.7-.6-.6-1.1-1-1.8-1.4-.7-.4-1.4-.6-2.2-.7h-.1c-.2 0-.5 0-.7.1h-.1l-8.7 3.7c-.4.2-.8.6-.9 1 0 .1-.1.3-.1.3 0 .1 0 .2-.1.3 0 .1 0 .3-.1.4v.4c0 .3 0 .6.1 1 0 .3.1.6.1.9.1.3.1.6.2.8 0 .1.1.2.1.3h-.2c-1.2-.1-2.3-.3-3.6-.6-1.1-.2-2.3-.5-3.5-.8-1.1-.3-2.1-.5-3.4-.9-.2 0-.3-.1-.5 0-.3 0-.6.1-.8.1-.2.1-.4.1-.7.2h-.1l-8.5 3.6c-.1 0-.1.1-.2.1-.2 0-.5-.1-.7-.1-.3 0-.7-.1-1-.1h-1c-.1 0-.2 0-.3-.1h-.9c-.1 0-.2 0-.4.1-.1 0-.2.1-.3.1h-.1l-1.2.5-4.9 2.1c-.8-.2-1.6-.3-2.3-.4-1-.1-1.9-.2-2.8-.2h-1.4c-.5 0-1 .1-1.4.1-.5.1-.9.1-1.4.2-.5.1-.9.2-1.4.4-.2.1-.4.2-.5.3h-.2l-4 1.7-4 1.7c-.6.3-1.2.6-1.7.9-.6.4-1.1.8-1.5 1.2-.5.5-.9.9-1.2 1.4-.4.6-.6 1.2-.7 1.8-.1.5.1.9.5 1.2.2.1.4.2.5.3l-4.1 1.8c-.1 0-.2.1-.2.1.1 0 .1-.1.2-.1-.1 0-.1.1-.2.1-.2.1-.4.2-.5.4-.1.1-.2.3-.3.4h-4.5l-3.2-.1-3.1-.1-3.1-.1-1.6-.1-1.5-.1-3.2-.1-3.2-.1-3.2-.1-3.3-.1h-6.8c-1.1 0-2.3 0-3.4.1-1.2 0-2.4.1-3.4.2h-.2c-1.8.4-3.7 1.1-5.5 1.9h-.2l-7.1 3.3c-1.6.7-3.1 1.6-4.7 2.6-1.4.9-2.9 2-4.5 3.2-.9.7-1.9 1.6-3 2.4-.3-.3-.5-.6-.8-1-.3-.5-.6-1-.9-1.4-.4-.6-.7-1.2-1.1-1.7-.5-.7-.9-1.2-1.3-1.6-.6-.5-1.2-.9-1.9-1.2-.7-.3-1.6-.5-2.4-.5h-1.4c-.1 0-.2.1-.3.1h-.1l-6.7 3.2c-.1 0-1.8 1-1.8 1l-1.4.7c-1 .4-1.9.9-2.9 1.3-4.3 1.9-8.8 3.7-13.2 5.3-4.4 1.6-8.9 3-13.3 4.3-4.4 1.2-8.8 2.3-13 3.1-.1 0-.1.1-.2.1h-.2l-6 3c-.5.2-.8.7-.8 1.2s.2 1 .6 1.3c.6.5 1.2.9 2 1.3.6.4 1.3.7 2 1 .6.3 1.3.6 2.1.8.7.3 1.4.5 2.1.7l.4.1.6.2 1 .4c.4.1.7.3 1 .4.4.2.7.3 1 .4.1 0 .2.1.4.1.5.1 1 .1 1.5.2s1 .1 1.5.2c.4 0 .9.1 1.4.1h1.5c1.4 0 2.8 0 4.1-.2 1.4-.1 2.7-.3 4-.6 1.3-.3 2.7-.6 4-1.1 1.3-.4 2.6-.9 3.8-1.5l1-.5 5.5-2.5c.1 0 .1-.1.2-.1 1.5-.7 2.9-1.4 4.4-2.3 1.1-.7 2.3-1.5 3.4-2.3.3.1.5.2.9.3.3.1.7.3 1.1.5.4.2.7.4 1.2.6.4.2.8.4 1.3.6.5.2.9.4 1.4.6.5.2 1 .4 1.5.5.4.1.8.1 1.2.2.7.5 1.2 1 1.7 1.6.5.7.9 1.4 1.2 2.3.3.8.5 1.7.7 2.8.2 1 .3 2 .4 3 0 .1.1.5.1.5l.1 1.2c.1.4.1 1 .2 1.6.1.6.2 1.1.3 1.6.1.6.3 1.1.4 1.6 1 3 2.3 5.5 4 7.9 1.5 2.1 3.4 3.9 5.7 5.5 1.9 1.4 4 2.6 6.7 3.9 2.4 1.1 4.8 2.1 7.2 3 2.2.9 4.5 1.8 6.8 2.9 2.5 1.1 4.5 2.3 6.2 3.5 2.1 1.4 3.8 3 5.2 4.8 1.6 2 2.9 4.2 3.9 6.7.1.4.4.7.8.8 2 .9 4.1 1.7 6.4 2.5 2 .7 4.1 1.3 6.5 2 2 .5 4.1 1.1 6.5 1.6l6.2 1.4h.2l1.4.5.3 3.3c0 .1.1.3.1.4.1.2.2.4.2.6 0 .2.1.3.1.4v.3c0 .1 0 .1-.1.2 0 .1-.1.2-.2.2l-.1.1c-.1.1-.2.1-.2.2 0 0-.1 0-.2.1s-.2.1-.3.2l-3.5.9h.4c-.1 0-.2 0-.4.1h-.3l-.2.1c-.1 0-.2.1-.3.1.1 0 .2-.1.2-.1-.1 0-.2.1-.3.1.1 0 .2-.1.2-.1-.1 0-.3.1-.4.1h.1c-.1 0-.1 0-.2.1h.1-.1s-.1 0-.1.1h.1s-.1 0-.2.1h-.1s-.1 0-.1.1c-.1 0-.2.1-.3.2.1 0 .1-.1.2-.1 0 0-.1.1-.2.1s-.2.1-.3.2c-.6.3-.8 1-.7 1.6.3 1 .6 2 1 3s.9 1.9 1.4 2.7c.5.9 1.2 1.6 1.8 2.4.7.7 1.4 1.4 2.1 1.9.3.3.8.3 1.2.2l7.9-1.9c.2-.1.4-.2.6-.4.1-.1.1-.1.1-.2.1-.1.2-.2.2-.3.2-.5.5-1 .9-1.4.3-.4.7-.8 1.1-1.1.4-.3.8-.6 1.3-.9.4-.3.8-.5 1.2-.7 0 .1.1.2.1.3 0 .1.1.2.1.2.2.7.4 1.3.6 2 .3.8.6 1.5 1.1 2 .5.7 1.2 1.2 1.9 1.6.5.3 1.2.5 1.8.6.1.4.3.8.5 1.1.4.6.8 1.1 1.3 1.5.5.4 1 .6 1.7.8.5.1 1.1.2 1.7.2h1c.3 0 .6-.1 1-.1.3-.1.7-.1 1-.2l.9-.2c.1 0 1.1-.2 1.1-.2.3-.1.6-.1.9-.1.3 0 .6-.1.9-.1h2.2l8.3-1.8c.1 0 .1-.1.2-.1s.2-.1.2-.1c.1 0 .1-.1.2-.2.1 0 .1-.1.2-.2s.1-.2.1-.2c-.5.7-.5.6-.5.6 0-.1.1-.2.1-.4 0-.1.1-.3.1-.4 0-.1.1-.3.1-.4v-.5c0-.3 0-.7-.1-1l-.3-.9c-.1-.2-.2-.5-.4-.8-.1-.3-.3-.5-.4-.7-.1-.2-.2-.4-.3-.7-.1-.2-.2-.4-.2-.6-.1-.2-.1-.4-.1-.6v-.1c.1-.1.2-.1.2-.2l.6-.9c.2-.3.3-.7.4-1 .1-.3.1-.7 0-1.1 0-.2-.1-.5-.2-.7-.4-.6-.8-1.2-1.3-1.7s-.9-1.1-1.5-1.6c-.5-.5-1-1-1.6-1.5l-1.7-1.5c-1.1-1-2.4-2.1-3.5-3.2-1.2-1.2-2-2.3-2.7-3.4-.7-1.3-1.1-2.5-1.2-3.9-.1-1 .1-2.1.4-3.3h4.3c.2 0 .3 0 .4-.1l.3-.1c.2-.1.5-.1.7-.2.2 0 .5-.1.7-.1.2 0 .5 0 .8-.1h1.6c.3 0 .7.1.9.1.3 0 .7.1 1 .1.3 0 .7.1 1 .1l.9.1c.5.1.8.1 1.1.1.3 0 .7.1 1 .1h1.8c.3 0 .5 0 .8-.1.2 0 .5-.1.7-.1.3-.1.5-.1.8-.2l3.8-1 4.3-1.2.2-.1.2-.1s.1 0 .1-.1l.9-.3c.5-.2.9-.4 1.3-.7.1-.1.2-.1.3-.2l.6-.6c.5-.6 1-1.1 1.4-1.7.5-.7.9-1.3 1.2-1.9.4-.8.6-1.5.7-2.3.1-.9-.1-1.8-.5-2.6-.5-1.1-1-2.3-1.6-3.5-.5-1.1-1.1-2.2-1.9-3.4-.6-1-1.2-2.1-2-3.3l-2-3.2-.2-.3-1.8-2.9c-.7-1.2-1.4-2.3-2-3.3-.7-1.2-1.3-2.3-1.8-3.4-.6-1.1-1.1-2.2-1.5-3.3 0-.5-.1-1-.1-1.6v-1.8c0-.6.1-1.2.1-1.9l.2-1.9v-.3l.1-1.6c.1-.7.1-1.4.2-2 .1-.7.1-1.4.1-2.1v-1.5c2.1-1.5 4.2-2.9 6.3-4.4 2.6-1.7 5-3.1 7.1-4.2.5-.2.9-.4 1.4-.6.1 0 .3-.1.5-.1.8-.2 1.7-.3 2.5-.5.5-.1 1-.1 1.6-.2.3.7.7 1.4 1.2 2 .6.8 1.4 1.5 2.4 2.1.8.5 1.6.9 2.7 1.4.9.4 1.8.7 2.7 1 1 .3 1.9.7 2.9 1 1 .4 1.7.8 2.3 1.3.7.5 1.2 1.1 1.6 1.8.5.8.7 1.7.9 2.8 0 .2.1.4.2.6.2.4.5.7.8 1 .3.3.6.5 1 .7.3.2.7.3 1.1.4.3.1.7.1 1.1.1h.8c.3 0 .5-.1.8-.1.3 0 .6-.1.8-.1l.8-.2c.2 0 .5-.1.7-.1.3 0 .5-.1.7-.1.3 0 .5-.1.8-.1h.9c.2 0 .3 0 .5-.1l9.2-3c.1 0 .2-.1.3-.2h.2c.6-.4 1.3-.9 1.8-1.4.8-.7 1.4-1.4 1.9-2.1.7-.9 1.1-1.8 1.5-2.8.4-1.1.5-2.3.4-3.5-.3.3-.4 0-.7-.3zm-103.9 47.6c-.1 0-.2.1-.3.1-.6.3-1.2.7-1.9 1.1-.7.4-1.3.9-2 1.4-.7.5-1.4 1-2.1 1.6-.3.2-.5.4-.8.7-.6-.5-1.3-.9-1.9-1.4-2.6-2.1-4.9-4.5-6.8-6.9-1.8-2.3-3.3-4.8-4.4-7.3 2.7.5 5.4 1 8 1.4 2.8.4 5.7.8 8.5 1.1 2.7.3 5.4.4 8 .6.5.4.9.8 1.3 1.3.3.5.6 1.1.8 1.7.2.6.3 1.2.5 2 0 .2 0 .4.1.5l-7 2.1z" fill="#231F20"/><path class="st2" d="M67.2 369.6c.1 1 0 2-.3 2.9-.3.9-.7 1.7-1.3 2.4-.5.7-1.1 1.3-1.7 1.9-.6.5-1.2 1-1.7 1.4h-1c-.3 0-.6 0-.9.1-.3 0-.5.1-.8.1-.3 0-.5.1-.8.1-.3.1-.5.1-.8.1-.3 0-.5.1-.7.1-.2 0-.5.1-.7.1h-.7c-.3 0-.5 0-.8-.1-.2-.1-.5-.1-.7-.2-.2-.1-.4-.3-.6-.4-.2-.2-.4-.4-.5-.7-.2-1.4-.5-2.5-1.1-3.4-.5-.9-1.2-1.7-2.1-2.3-.8-.6-1.7-1.1-2.7-1.5-1-.4-2-.7-3-1.1-.9-.3-1.8-.6-2.7-1-.9-.4-1.7-.8-2.5-1.3s-1.5-1.1-2.1-1.8c-.6-.7-1.1-1.6-1.4-2.7-3 .2-5.8.7-8.5 1.6-2.7.8-5.3 1.9-7.8 3.2-2.5 1.3-4.9 2.8-7.3 4.3-2.4 1.6-4.7 3.2-6.9 4.8v2.2c0 .7-.1 1.4-.1 2.1 0 .7-.1 1.3-.2 2s-.1 1.3-.2 1.9c-.1.6-.1 1.3-.2 1.9-.1.6-.1 1.3-.1 1.9 0 .6-.1 1.3 0 1.9 0 .6 0 1.3.1 1.9.5 1.2 1 2.4 1.6 3.6.6 1.2 1.2 2.3 1.8 3.4.6 1.1 1.3 2.2 2 3.3.7 1.1 1.4 2.2 2 3.2.7 1.1 1.3 2.1 2 3.2s1.3 2.2 2 3.3c.6 1.1 1.2 2.2 1.8 3.4.6 1.1 1.1 2.3 1.6 3.4.3.7.4 1.3.4 1.9 0 .6-.2 1.2-.5 1.8-.3.6-.7 1.1-1.1 1.6-.4.5-.9 1.1-1.4 1.6l-.6.6c-.4.2-.7.4-1.1.6-.4.2-.7.3-1.1.4-.4.1-.8.1-1.2.2-.4 0-.8.1-1.2 0h-.9c-.3 0-.6-.1-.9-.1-.3 0-.6-.1-1-.1-.3 0-.6-.1-1-.1-.3 0-.7-.1-1-.1-.3 0-.7-.1-1-.1-.3 0-.7-.1-1-.1H2.7c-.3 0-.6 0-.9.1-.3 0-.6.1-.9.1-.3.1-.6.1-.9.2h-5.9c-.9 0-1.8.1-2.6.2-.9.1-1.7.3-2.5.5s-1.6.5-2.4.8c-.8 2.1-1.1 4-1 5.6.1 1.7.6 3.2 1.4 4.5.8 1.4 1.8 2.6 2.9 3.7 1.1 1.2 2.4 2.2 3.6 3.3.6.5 1.1 1 1.7 1.5.6.5 1.1 1 1.6 1.5s1 1 1.4 1.5c.4.5.8 1.1 1.2 1.6v.6c0 .2-.1.4-.2.6-.1.2-.2.4-.4.6l-.6.6v1c0 .3.1.6.2.8.1.3.2.5.3.7.1.2.2.5.4.7.1.2.3.5.4.7.1.2.2.5.3.7.1.2.2.4.2.7.1.2.1.4.1.7v.3c0 .1 0 .2-.1.3 0 .1-.1.2-.1.3 0 .1-.1.2-.1.3h-2.1c-.3 0-.6.1-1 .1-.3 0-.7.1-1 .1-.3.1-.7.1-1 .2-.3.1-.7.1-1 .2-.3.1-.7.1-1 .2-.3 0-.6.1-.9.1h-.9c-.5 0-1-.1-1.4-.2-.4-.1-.8-.3-1.2-.6-.4-.3-.7-.6-.9-1.1-.3-.5-.5-1-.7-1.7-.9-.1-1.7-.3-2.3-.6-.6-.3-1.1-.7-1.4-1.2-.4-.5-.6-1.1-.9-1.7-.2-.6-.4-1.3-.6-2-.2-.6-.4-1.3-.6-2-.2-.6-.5-1.3-.9-1.8s-.8-1-1.4-1.4c-.6-.4-1.3-.6-2.1-.7-.2 1-.4 1.8-.8 2.4-.3.7-.7 1.2-1.2 1.7s-1 .9-1.5 1.2c-.5.4-1.1.7-1.7 1-.5.3-1 .5-1.5.9-.5.3-1 .7-1.4 1-.5.4-.9.8-1.3 1.3s-.7 1.1-1 1.7c-.7-.5-1.3-1.1-1.9-1.8-.6-.7-1.2-1.4-1.7-2.2-.5-.8-1-1.6-1.4-2.5-.4-.9-.7-1.8-1-2.8l.6-.3c.2-.1.5-.2.7-.2.3-.1.5-.1.8-.2.3-.1.5-.1.8-.2.5-.1.9-.2 1.4-.3.4-.1.9-.2 1.3-.4s.7-.4 1-.6c.3-.2.5-.5.7-.8.1-.2.2-.4.2-.6 0-.2.1-.4 0-.7 0-.2-.1-.5-.1-.7-.1-.3-.2-.5-.3-.8l-.4-4.3-2.4-.8-6.6-1.5c-2.2-.5-4.4-1.1-6.6-1.6-2.2-.6-4.4-1.3-6.5-2-2.1-.7-4.3-1.5-6.3-2.4-1.1-2.8-2.5-5.2-4.2-7.2-1.7-2-3.6-3.7-5.6-5.1-2.1-1.4-4.3-2.6-6.5-3.7-2.3-1.1-4.6-2-7-2.9-2.5-1-4.9-2-7.2-3.1s-4.5-2.3-6.6-3.8c-2-1.5-3.9-3.2-5.4-5.3-1.6-2.1-2.9-4.6-3.8-7.5-.2-.5-.3-1-.4-1.5l-.3-1.5c-.1-.5-.2-1.1-.2-1.6-.1-.5-.1-1.1-.2-1.6-.1-1.1-.2-2.2-.4-3.3-.2-1.1-.4-2.1-.7-3.1-.3-1-.8-1.9-1.4-2.8-.6-.8-1.4-1.6-2.4-2.2-.5 0-1-.1-1.4-.2-.5-.1-.9-.3-1.3-.4-.4-.2-.9-.4-1.3-.6l-1.2-.6-1.2-.6c-.4-.2-.8-.4-1.2-.5-.4-.2-.8-.3-1.3-.4-.4-.1-.9-.2-1.3-.2-.3 0-.6 0-.9.1-.3 0-.6.1-.9.2-.3.1-.6.2-.9.4-.3.2-.6.4-1 .6-1.9 1.7-3.9 3.2-6 4.4-2.1 1.3-4.2 2.3-6.3 3.2-2.2.8-4.4 1.5-6.7 1.9-2.3.4-4.6.6-6.9.6-.5 0-.9 0-1.4-.1-.5 0-.9-.1-1.4-.1-.5 0-.9-.1-1.4-.2-.5-.1-.9-.1-1.4-.2-.3-.2-.7-.3-1-.4-.3-.1-.7-.3-1-.4-.3-.1-.7-.3-1-.4-.3-.1-.7-.2-1-.4-.7-.2-1.4-.5-2.1-.7-.7-.3-1.3-.5-2-.8-.7-.3-1.3-.6-1.9-1l-1.8-1.2c4.3-.8 8.7-1.9 13.1-3.1 4.4-1.2 8.9-2.7 13.4-4.3 4.5-1.6 8.9-3.4 13.3-5.3s8.7-4.1 12.9-6.3h1.2c.7 0 1.4.1 1.9.4.5.2 1 .6 1.4.9.4.4.8.9 1.2 1.4.4.5.7 1.1 1 1.6l.9 1.5c.3.5.7 1 1.1 1.4.4.4.8.8 1.3 1.1.5.3 1 .6 1.7.8 1.9-1.7 3.8-3.4 5.7-5 1.9-1.6 3.8-3.1 5.7-4.4 1.9-1.3 3.8-2.5 5.8-3.5s4-1.7 6.1-2.2c1.1-.1 2.3-.1 3.4-.2 1.1 0 2.3-.1 3.4-.1h6.8c1.1 0 2.2 0 3.2.1 1.1 0 2.2.1 3.2.1 1.1 0 2.1.1 3.2.1s2.1.1 3.2.1c1 0 2.1.1 3.1.1s2.1.1 3.1.1 2.1.1 3.2.1 2.1 0 3.2.1h6.8c1.1 0 2.3 0 3.4-.1 1.1 0 2.3-.1 3.4-.2l1-1-.1-.6c-.1-.1-.2-.1-.3-.2l-.3-.3c-.1-.1-.1-.2-.2-.3 0-.1-.1-.2-.1-.4v-.3c0-.1 0-.2.1-.3 0-.1.1-.2.1-.3.1-.1.1-.2.2-.3.6-.3 1.2-.5 1.8-.6.6-.2 1.2-.3 1.9-.4.6-.1 1.3-.1 1.9-.2.7 0 1.3-.1 2-.1.5 0 1.1-.1 1.6-.1s1.1-.1 1.6-.1c.5-.1 1.1-.1 1.6-.2l1.5-.3c-.4-.5-.8-1-1.3-1.3-.5-.4-1-.7-1.6-.9-.6-.2-1.2-.4-1.8-.5-.6-.1-1.3-.2-1.9-.2h-.8c-.3 0-.5 0-.8.1-.3 0-.5.1-.8.1-.2 0-.5.1-.7.2 0-.4.2-.8.5-1.2.3-.4.7-.8 1.1-1.2.5-.4 1-.8 1.5-1.1.6-.3 1.2-.6 1.8-.8.4-.1.8-.2 1.3-.3.4-.1.9-.2 1.3-.2.4-.1.9-.1 1.3-.1h1.3c.9 0 1.8.1 2.6.2.9.1 1.7.3 2.6.4.9.2 1.7.4 2.5.6l2.4.6.6-1c0-.2.1-.5.1-.8 0-.3.1-.6.1-.8.1-.3.1-.5.3-.7.1-.2.2-.4.4-.5.1 0 .1-.1.2-.1s.1-.1.2-.1h2.3c.3 0 .7.1 1 .1.3 0 .6.1.9.1.3 0 .5.1.8.1.3.1.6.1.9.2.3.1.6.1.9.1.3 0 .6.1.9.1h.8c.3 0 .7 0 1-.1.3 0 .7-.1 1-.2.3-.1.6-.2.9-.4.3-.2.6-.4.9-.7 0-.3-.1-.5-.1-.7v-.6c0-.2 0-.3.1-.5 0-.1.1-.3.2-.4.1-.2.3-.4.4-.5.2-.1.4-.3.6-.3.2-.1.4-.2.6-.2.2-.1.4-.1.6-.1 1.1.3 2.2.6 3.4.9 1.2.3 2.4.6 3.6.8 1.2.2 2.5.5 3.8.6 1.3.2 2.6.3 3.8.3h1.7c.6 0 1.2-.1 1.7-.1.6-.1 1.2-.1 1.7-.3.6-.1 1.1-.2 1.7-.4.2-.4.3-.8.4-1.2.1-.4.1-.8 0-1.1 0-.4-.1-.7-.2-1.1-.1-.3-.2-.7-.3-1-.1-.2-.1-.5-.2-.7-.1-.2-.1-.5-.2-.7-.1-.3-.1-.5-.1-.8v-1.4c0-.1 0-.2.1-.3 0-.1 0-.2.1-.3.7.1 1.2.3 1.7.6s1 .7 1.4 1.1c.4.4.8 1 1.2 1.5.4.5.7 1.1 1.1 1.7.3.4.5.9.8 1.3.3.4.6.9.9 1.3.3.4.7.8 1 1.1.4.4.7.7 1.2 1 .1.1.9.7 2 1.5s2.6 1.8 4 2.9c1.5 1 2.9 2.1 4.1 2.9 1.2.8 2.1 1.5 2.4 1.7.7 2.8 1.5 5.4 2.5 7.8.9 2.5 2 4.7 3.2 6.9 1.2 2.1 2.5 4.1 3.9 6 .9 1.4 2.5 3.1 4.2 4.7zM-18 418.9l.1-.5c-.2-.4-.3-.8-.5-1.3-.1-.4-.2-.9-.3-1.3-.1-.5-.1-.9-.2-1.4-.1-.5-.1-.9-.2-1.4-.1-.8-.2-1.6-.3-2.3-.1-.8-.3-1.5-.5-2.3-.2-.7-.6-1.4-1-2.1-.5-.7-1-1.3-1.8-1.8l-.2-.1c-2.8-.1-5.6-.3-8.5-.6-2.8-.3-5.7-.6-8.5-1.1-2.8-.4-5.7-.9-8.5-1.5s-5.6-1.2-8.5-2l-.4.1c-.4.4-.7.8-.8 1.3-.2.5-.2 1-.2 1.6 0 .5.1 1.1.2 1.5.1.5.2.9.3 1.2 1.3 3.1 3 6 5.1 8.6 2.1 2.6 4.5 5 7 7.1 2.6 2.1 5.3 3.9 8.1 5.5 2.8 1.5 5.5 2.7 8.2 3.6.2.1.3.2.5.2.2.1.3.1.5.2.2 0 .3.1.5.1h1.2c.1 0 .2-.1.3-.1.1 0 .2-.1.3-.1.3-.1.6-.3.9-.6.3-.3.5-.6.8-.9l.6-1.2c.2-.5.3-.9.4-1.5l-.2-.4-.4-.1c-.1.1-.2.1-.4.1-.1 0-.2.1-.3.1h-.6c-.2 0-.4 0-.6-.1-.2-.1-.4-.1-.6-.2l-.6-.3c-.2-.1-.4-.3-.6-.4-.2-.1-.4-.3-.6-.4l-.6-.3c-.2-.1-.5-.2-.7-.2-.2-.1-.5-.1-.8-.1h-.6c-.1 0-.2 0-.3.1-.1 0-.2.1-.3.1-.2 0-.4 0-.7-.1-.2-.1-.5-.1-.7-.2-.2-.1-.5-.2-.7-.4-.2-.2-.4-.3-.6-.5l-.4-.4c-.1-.1-.2-.3-.3-.4-.1-.1-.1-.3-.2-.4 0-.1-.1-.3-.1-.4.8-.6 1.5-1.2 2.2-1.8.7-.6 1.4-1.1 2.1-1.6.7-.5 1.3-.9 2-1.3.6-.4 1.3-.8 1.9-1.1.1.2.3.5.5 1 .2.4.5 1 .7 1.5.3.5.5 1 .7 1.4.2.4.3.6.3.7l.2.2c.2.1.4.1.7.2.2.1.5.1.7.2.2 0 .5.1.7.1h.7c.4 0 .8 0 1.2-.1.4-.1.7-.1 1.1-.2.3-.1.7-.3 1-.4.1-.3.3-.5.6-.8m23.2-1l-9-11.3-.3-.1h-1.2l-.4.3-3 11.7.1.4.8.7.4.1c.8-.2 1.5-.4 2.3-.5.8-.1 1.6-.3 2.5-.3.8-.1 1.7-.2 2.6-.2h4.7l.4-.2.1-.6" fill="#FFF"/><path class="st0" d="M37.4 397.4c0 42.8-34.8 77.7-77.7 77.7-42.8 0-77.7-34.8-77.7-77.7s34.8-77.7 77.7-77.7c42.8 0 77.7 34.9 77.7 77.7zm-77.7-79.9c-44 0-79.9 35.8-79.9 79.9s35.8 79.9 79.9 79.9 79.9-35.8 79.9-79.9-35.9-79.9-79.9-79.9z" fill="#231F20"/><path class="st3" d="M31 397.4c0 39.3-32 71.3-71.3 71.3s-71.3-32-71.3-71.3 32-71.3 71.3-71.3 71.3 32 71.3 71.3z" fill="#CC202C"/><path class="st0" d="M69.1 369.4c0-.5-.3-.9-.6-1.2-1.6-1.5-3.1-3.2-4.5-4.9-1.4-1.8-2.7-3.7-3.8-5.8-1.1-2.1-2.2-4.3-3.1-6.6-.9-2.4-1.7-5-2.4-7.6-.1-.5-.4-.9-.8-1.1l-12.6-8.9c-.3-.2-.6-.4-.9-.7-.3-.3-.5-.6-.8-1-.2-.3-.5-.7-.8-1.1l-.6-.9-.2-.3c-.4-.6-.7-1.2-1.1-1.8-.5-.7-.9-1.3-1.4-1.7-.6-.6-1.2-1.1-1.9-1.5-.7-.4-1.5-.7-2.4-.8h-.1c-.3 0-.5 0-.9.1h-.1l-8.7 3.7c-.6.2-1 .8-1.2 1.4 0 .1-.1.2-.1.3l-.1.4c0 .2 0 .3-.1.4v.4c0 .3 0 .7.1 1.1 0 .3.1.6.2.9 0 .2.1.3.1.4-.9-.1-1.9-.3-3-.5s-2.3-.5-3.5-.8c-1.1-.3-2.1-.5-3.4-.9-.2-.1-.4-.1-.7-.1-.3 0-.6.1-.9.2-.2.1-.4.1-.7.2H8l-8.5 3.6h-.2c-.2 0-.3-.1-.5-.1-.3 0-.7-.1-1.1-.1h-.9c-.2 0-.2 0-.3-.1h-1.1c-.1 0-.3 0-.5.1-.1 0-.2.1-.3.1h-.1l-6 2.6c-.8-.1-1.5-.3-2.1-.3-1-.1-2-.2-2.8-.2h-1.4c-.5 0-1 .1-1.5.1-.5.1-1 .1-1.4.2-.5.1-1 .2-1.5.4-.1 0-.3.1-.4.2-.1 0-.1.1-.1.1-.1 0-.2 0-.3.1l-8 3.5c-.6.3-1.2.6-1.8 1-.6.4-1.1.8-1.6 1.2-.5.5-1 1-1.3 1.5-.4.7-.7 1.3-.7 2-.1.5.1 1.1.5 1.5l-3.3 1.4h-.1c-.1 0-.2.1-.2.1-.3.2-.5.4-.7.6-.1.1-.1.1-.1.2h-4.2l-6.3-.2v.1c-.5-.1-1.4-.1-3.1-.2l-3.1-.1v.1c-.5-.1-1.4-.1-3.2-.2l-6.5-.2-6.7-.1h-3.4c-1.1 0-2.3 0-3.4.1-1.2 0-2.4.1-3.5.2h-.3c-1.7.4-3.5 1-5.5 1.9-.1 0-.1 0-.2.1l-7.1 3.3c-1.5.7-3.1 1.6-4.8 2.6-1.5.9-2.9 2-4.5 3.2-.8.6-1.7 1.4-2.6 2.1-.1-.2-.3-.4-.4-.6-.3-.5-.6-1-.9-1.4-.4-.6-.7-1.2-1.1-1.8-.5-.7-.9-1.2-1.4-1.7-.6-.6-1.3-1-2-1.3-.8-.3-1.7-.5-2.6-.5l-1.5.1c-.2 0-.3.1-.4.1 0 0-.2 0-.2.1l-6.8 3.3c-.1 0-1.8.9-1.8.9l-2.6 1.3c-.6.3-1.2.5-1.7.8-4.3 1.9-8.7 3.7-13.2 5.3-4.4 1.6-8.8 3-13.2 4.3-4.4 1.2-8.7 2.3-12.9 3.1-.1 0-.2.1-.2.1-.1 0-.2 0-.3.1l-6 3c-.6.3-1 .9-1.1 1.6-.1.7.2 1.3.8 1.7.6.5 1.3.9 2 1.3s1.3.7 2.1 1c.6.3 1.3.6 2.1.8.6.2 1.2.4 1.7.6l.4.1c.1 0 .3.1.4.1l2 .7c.2.1.4.2.6.2.4.2.7.3 1 .4.1.1.3.1.5.1.5.1 1 .1 1.5.2s1 .1 1.5.2c.4 0 .9.1 1.5.1h2.1c1.1 0 2.4-.1 3.6-.2 1.4-.1 2.7-.3 4.1-.6 1.4-.3 2.7-.7 4-1.1 1.4-.5 2.7-1 3.9-1.5l6.5-2.9c.1 0 .2-.1.2-.1 1.7-.8 3.1-1.5 4.4-2.3 1-.6 2.1-1.4 3.2-2.2.2.1.4.1.6.2.3.1.7.3 1.1.5.3.1.6.3.9.5l.4.2c.4.2.7.4 1.1.6.5.3 1 .4 1.4.6.5.2 1 .4 1.6.5.4.1.7.1 1.1.2.6.4 1.1.9 1.5 1.5.4.6.8 1.3 1.1 2.2.3.8.5 1.7.6 2.8.2 1 .3 2 .4 3l.2 1.7c.1.4.1 1 .2 1.6.1.6.2 1.1.3 1.6.1.6.3 1.1.5 1.6 1 3 2.3 5.6 4.1 8 1.6 2.1 3.5 3.9 5.8 5.6 1.9 1.4 4 2.6 6.8 3.9l1.5.6c.3.1.6.3.9.4 0 0 3.2 1.4 4.8 2 2 .8 4.5 1.8 6.8 2.9 2.4 1.1 4.4 2.3 6.2 3.5 2 1.4 3.7 3 5.1 4.7 1.6 1.9 2.8 4.1 3.8 6.6.2.5.6.9 1 1.1 2 .9 4.1 1.7 6.4 2.5 2 .7 4.1 1.3 6.5 2 1.9.5 4.1 1.1 6.6 1.6l6.2 1.4 1.3.4.3 3c0 .2.1.4.1.6.1.2.1.4.2.5 0 .1.1.2.1.4v.2l-.1.1-.1.1c-.1 0-.1.1-.2.1l.2.3v.2l-.3-.3-3.7 1h-.6c-.1 0-.2.1-.3.1h-.1s-.1 0-.1.1h-.1s-.1 0-.1.1h-.1c-.1 0-.1.1-.2.1s-.2.1-.4.2c-.7.5-1.1 1.3-.9 2.2.3 1 .6 2.1 1.1 3.1.4 1 .9 1.9 1.5 2.8.6.9 1.2 1.7 1.9 2.4.7.8 1.4 1.4 2.2 2 .5.3 1.1.5 1.6.3l7.8-1.9h.2c.3-.1.6-.2.8-.5l.2-.2.1-.1c.1-.1.1-.2.2-.3.2-.5.5-.9.8-1.3.3-.4.6-.7 1-1l1.2-.9c.2-.1.4-.3.6-.4.2.6.4 1.3.6 1.9.3.9.7 1.6 1.1 2.1.6.8 1.3 1.4 2.1 1.8.6.3 1.2.5 1.7.6.1.4.3.7.5 1 .4.7.9 1.2 1.4 1.6.5.4 1.1.7 1.8.9.6.2 1.2.2 1.9.3h1.1c.3 0 .6-.1 1.1-.1.3-.1.7-.1 1-.2l.9-.2c.1 0 1.1-.2 1.1-.2.3 0 .6-.1.9-.1.3 0 .6-.1.8-.1h2.4l8.3-1.8c.1 0 .2-.1.2-.1.1 0 .2-.1.4-.2.1 0 .1-.1.2-.2s.2-.1.3-.3c.1-.1.1-.1.2-.3l.1-.2.1-.4c0-.1.1-.2.1-.3l.1-.2c0-.1.1-.3.1-.5v-.5c0-.4 0-.7-.1-1.1-.1-.3-.2-.6-.3-1-.1-.2-.2-.5-.4-.8-.1-.3-.3-.5-.4-.8l-.3-.6c-.1-.2-.2-.3-.2-.5 0-.1-.1-.2-.1-.4l.1-.1c.3-.3.5-.6.7-1 .2-.4.3-.8.4-1.2.1-.4.1-.8 0-1.2 0-.3-.1-.6-.3-.9-.4-.6-.8-1.2-1.3-1.8-.5-.6-1-1.1-1.5-1.6s-1-1-1.6-1.5c-.1-.1-1.7-1.5-1.7-1.5-1.2-1.1-2.4-2.1-3.5-3.2-1.1-1.2-2-2.2-2.6-3.3-.7-1.2-1-2.4-1.1-3.7-.1-.8 0-1.6.3-2.7h2.3l1.7.1c.2 0 .4 0 .5-.1l.3-.1c.2-.1.4-.1.6-.1.2 0 .4-.1.7-.1.2 0 .5 0 .7-.1h1.6c.3 0 .5 0 .8.1h.2c.3 0 .5.1.8.1h.2c.3 0 .7.1 1 .1.1 0 .9.1.9.1.5.1.8.1 1.1.1.3 0 .6.1 1 .1h1.8c.3 0 .5 0 .8-.1.2 0 .5-.1.8-.1.3-.1.6-.1.8-.2L16 429l.4-.1h.1s.1 0 .1-.1l.9-.3c.5-.2.9-.4 1.4-.7l.3-.3.8-.9c.5-.5.9-1 1.2-1.4.6-.7 1-1.3 1.3-2 .4-.8.7-1.7.7-2.5.1-1-.1-1.9-.5-2.8-.5-1.1-1-2.3-1.6-3.5-.6-1.1-1.2-2.3-1.9-3.5-.6-1-1.2-2.1-2-3.3l-2-3.2c0-.1-.2-.3-.2-.3l-1.8-2.9c-.7-1.2-1.4-2.3-1.9-3.3-.7-1.2-1.3-2.3-1.8-3.3s-1-2.1-1.4-3.2c0-.5-.1-.9-.1-1.5v-1.8c0-.6.1-1.2.1-1.9l.4-3.8c.1-.7.1-1.4.2-2 0-.6.1-1.2.1-1.8v-1.7c2-1.4 4-2.8 6.1-4.2 2.6-1.7 4.9-3 7.1-4.2.2-.1.5-.2.7-.3l.6-.3c.1 0 .1 0 .2-.1h.2c.8-.2 1.7-.3 2.5-.4.4-.1.8-.1 1.2-.1.3.7.7 1.3 1.1 1.8.7.9 1.5 1.6 2.5 2.2.8.5 1.7 1 2.8 1.4.9.3 1.7.6 2.8 1h.1c.9.3 1.8.6 2.7 1 .9.4 1.6.8 2.2 1.2.6.5 1.1 1 1.5 1.7.4.7.7 1.6.8 2.6 0 .3.1.6.3.8.3.4.5.8.9 1.1.3.3.7.6 1.1.8.4.2.8.3 1.2.4.3.1.7.1 1.1.1h.8c.3 0 .5-.1.8-.1.3 0 .6-.1.8-.1l.8-.2c.2 0 .4-.1.6-.1.3 0 .5-.1.7-.1.2 0 .5-.1.7-.1h.9c.2 0 .4 0 .6-.1l9.2-3c.1-.1.3-.1.3-.2 0 0 .1 0 .1-.1l.1-.1c.7-.5 1.3-.9 1.8-1.4.8-.7 1.5-1.4 2-2.2.7-.9 1.2-1.9 1.5-2.9-1.1-.8-.9-2.1-1.1-3.3zm-98.5 44.3l-6.5 2c-.1 0-.3.1-.4.2-.6.3-1.3.7-1.9 1.2-.7.4-1.4.9-2 1.4-.7.5-1.4 1-2.1 1.6-.2.1-.3.3-.5.4-.1-.1-.3-.2-.4-.3l-1.2-.9c-2.6-2.1-4.9-4.4-6.7-6.8-1.6-2-2.9-4.1-3.9-6.3 2.5.5 4.8.9 7.1 1.3 2.8.4 5.6.8 8.5 1.1 2.6.3 5.2.4 7.9.6.5.4.8.7 1 1.1.3.5.6 1 .8 1.6.2.6.3 1.2.4 1.9-.1-.2-.1-.2-.1-.1z" fill="#231F20"/><path class="st0" d="M68.2 368.5c-1.6-1.5-3.2-3.2-4.6-5-1.4-1.8-2.7-3.8-3.8-5.8-1.1-2.1-2.2-4.3-3.1-6.7-.9-2.4-1.7-5-2.4-7.7-.1-.3-.3-.6-.6-.8l-2.4-1.7-3.6-2.6-.6-.4-2.1-1.5-1.9-1.3-.7-.5-1.3-.9c-.4-.2-.7-.5-1-.8-.3-.3-.6-.6-.9-1-.3-.3-.5-.7-.8-1.2-.3-.4-.5-.8-.8-1.3-.3-.6-.7-1.2-1.1-1.8-.5-.7-.9-1.2-1.3-1.7-.6-.6-1.1-1-1.8-1.4-.7-.4-1.4-.6-2.2-.7h-.1c-.2 0-.5 0-.7.1h-.1l-8.7 3.7c-.4.2-.8.6-.9 1 0 .1-.1.3-.1.3 0 .1 0 .2-.1.3 0 .1 0 .3-.1.4v.4c0 .3 0 .6.1 1 0 .3.1.6.1.9.1.3.1.6.2.8 0 .1.1.2.1.3h-.2c-1.2-.1-2.3-.3-3.6-.6-1.1-.2-2.3-.5-3.5-.8-1.1-.3-2.1-.5-3.4-.9-.2 0-.3-.1-.5 0-.3 0-.6.1-.8.1-.2.1-.4.1-.7.2h-.1l-8.5 3.6c-.1 0-.1.1-.2.1-.2 0-.5-.1-.7-.1-.3 0-.7-.1-1-.1h-1c-.1 0-.2 0-.3-.1h-.9c-.1 0-.2 0-.4.1-.1 0-.2.1-.3.1h-.1l-1.2.5-4.9 2.1c-.8-.2-1.6-.3-2.3-.4-1-.1-1.9-.2-2.8-.2h-1.4c-.5 0-1 .1-1.4.1-.5.1-.9.1-1.4.2-.5.1-.9.2-1.4.4-.2.1-.4.2-.5.3h-.2l-4 1.7-4 1.7c-.6.3-1.2.6-1.7.9-.6.4-1.1.8-1.5 1.2-.5.5-.9.9-1.2 1.4-.4.6-.6 1.2-.7 1.8-.1.5.1.9.5 1.2.2.1.4.2.5.3l-4.1 1.8c-.1 0-.2.1-.2.1.1 0 .1-.1.2-.1-.1 0-.1.1-.2.1-.2.1-.4.2-.5.4-.1.1-.2.3-.3.4h-4.5l-3.2-.1-3.1-.1-3.1-.1-1.6-.1-1.5-.1-3.2-.1-3.2-.1-3.2-.1-3.3-.1h-6.8c-1.1 0-2.3 0-3.4.1-1.2 0-2.4.1-3.4.2h-.2c-1.8.4-3.7 1.1-5.5 1.9h-.2l-7.1 3.3c-1.6.7-3.1 1.6-4.7 2.6-1.4.9-2.9 2-4.5 3.2-.9.7-1.9 1.6-3 2.4-.3-.3-.5-.6-.8-1-.3-.5-.6-1-.9-1.4-.4-.6-.7-1.2-1.1-1.7-.5-.7-.9-1.2-1.3-1.6-.6-.5-1.2-.9-1.9-1.2-.7-.3-1.6-.5-2.4-.5h-1.4c-.1 0-.2.1-.3.1h-.1l-6.7 3.2c-.1 0-1.8 1-1.8 1l-1.4.7c-1 .4-1.9.9-2.9 1.3-4.3 1.9-8.8 3.7-13.2 5.3-4.4 1.6-8.9 3-13.3 4.3-4.4 1.2-8.8 2.3-13 3.1-.1 0-.1.1-.2.1h-.2l-6 3c-.5.2-.8.7-.8 1.2s.2 1 .6 1.3c.6.5 1.2.9 2 1.3.6.4 1.3.7 2 1 .6.3 1.3.6 2.1.8.7.3 1.4.5 2.1.7l.4.1.6.2 1 .4c.4.1.7.3 1 .4.4.2.7.3 1 .4.1 0 .2.1.4.1.5.1 1 .1 1.5.2s1 .1 1.5.2c.4 0 .9.1 1.4.1h1.5c1.4 0 2.8 0 4.1-.2 1.4-.1 2.7-.3 4-.6 1.3-.3 2.7-.6 4-1.1 1.3-.4 2.6-.9 3.8-1.5l1-.5 5.5-2.5c.1 0 .1-.1.2-.1 1.5-.7 2.9-1.4 4.4-2.3 1.1-.7 2.3-1.5 3.4-2.3.3.1.5.2.9.3.3.1.7.3 1.1.5.4.2.7.4 1.2.6.4.2.8.4 1.3.6.5.2.9.4 1.4.6.5.2 1 .4 1.5.5.4.1.8.1 1.2.2.7.5 1.2 1 1.7 1.6.5.7.9 1.4 1.2 2.3.3.8.5 1.7.7 2.8.2 1 .3 2 .4 3 0 .1.1.5.1.5l.1 1.2c.1.4.1 1 .2 1.6.1.6.2 1.1.3 1.6.1.6.3 1.1.4 1.6 1 3 2.3 5.5 4 7.9 1.5 2.1 3.4 3.9 5.7 5.5 1.9 1.4 4 2.6 6.7 3.9 2.4 1.1 4.8 2.1 7.2 3 2.2.9 4.5 1.8 6.8 2.9 2.5 1.1 4.5 2.3 6.2 3.5 2.1 1.4 3.8 3 5.2 4.8 1.6 2 2.9 4.2 3.9 6.7.1.4.4.7.8.8 2 .9 4.1 1.7 6.4 2.5 2 .7 4.1 1.3 6.5 2 2 .5 4.1 1.1 6.5 1.6l6.2 1.4h.2l1.4.5.3 3.3c0 .1.1.3.1.4.1.2.2.4.2.6 0 .2.1.3.1.4v.3c0 .1 0 .1-.1.2 0 .1-.1.2-.2.2l-.1.1c-.1.1-.2.1-.2.2 0 0-.1 0-.2.1s-.2.1-.3.2l-3.5.9h.4c-.1 0-.2 0-.4.1h-.3l-.2.1c-.1 0-.2.1-.3.1.1 0 .2-.1.2-.1-.1 0-.2.1-.3.1.1 0 .2-.1.2-.1-.1 0-.3.1-.4.1h.1c-.1 0-.1 0-.2.1h.1-.1s-.1 0-.1.1h.1s-.1 0-.2.1h-.1s-.1 0-.1.1c-.1 0-.2.1-.3.2.1 0 .1-.1.2-.1 0 0-.1.1-.2.1s-.2.1-.3.2c-.6.3-.8 1-.7 1.6.3 1 .6 2 1 3s.9 1.9 1.4 2.7c.5.9 1.2 1.6 1.8 2.4.7.7 1.4 1.4 2.1 1.9.3.3.8.3 1.2.2l7.9-1.9c.2-.1.4-.2.6-.4.1-.1.1-.1.1-.2.1-.1.2-.2.2-.3.2-.5.5-1 .9-1.4.3-.4.7-.8 1.1-1.1.4-.3.8-.6 1.3-.9.4-.3.8-.5 1.2-.7 0 .1.1.2.1.3 0 .1.1.2.1.2.2.7.4 1.3.6 2 .3.8.6 1.5 1.1 2 .5.7 1.2 1.2 1.9 1.6.5.3 1.2.5 1.8.6.1.4.3.8.5 1.1.4.6.8 1.1 1.3 1.5.5.4 1 .6 1.7.8.5.1 1.1.2 1.7.2h1c.3 0 .6-.1 1-.1.3-.1.7-.1 1-.2l.9-.2c.1 0 1.1-.2 1.1-.2.3-.1.6-.1.9-.1.3 0 .6-.1.9-.1h2.2l8.3-1.8c.1 0 .1-.1.2-.1s.2-.1.2-.1c.1 0 .1-.1.2-.2.1 0 .1-.1.2-.2s.1-.2.1-.2c-.5.7-.5.6-.5.6 0-.1.1-.2.1-.4 0-.1.1-.3.1-.4 0-.1.1-.3.1-.4v-.5c0-.3 0-.7-.1-1l-.3-.9c-.1-.2-.2-.5-.4-.8-.1-.3-.3-.5-.4-.7-.1-.2-.2-.4-.3-.7-.1-.2-.2-.4-.2-.6-.1-.2-.1-.4-.1-.6v-.1c.1-.1.2-.1.2-.2l.6-.9c.2-.3.3-.7.4-1 .1-.3.1-.7 0-1.1 0-.2-.1-.5-.2-.7-.4-.6-.8-1.2-1.3-1.7s-.9-1.1-1.5-1.6c-.5-.5-1-1-1.6-1.5l-1.7-1.5c-1.1-1-2.4-2.1-3.5-3.2-1.2-1.2-2-2.3-2.7-3.4-.7-1.3-1.1-2.5-1.2-3.9-.1-1 .1-2.1.4-3.3h4.3c.2 0 .3 0 .4-.1l.3-.1c.2-.1.5-.1.7-.2.2 0 .5-.1.7-.1.2 0 .5 0 .8-.1h1.6c.3 0 .7.1.9.1.3 0 .7.1 1 .1.3 0 .7.1 1 .1l.9.1c.5.1.8.1 1.1.1.3 0 .7.1 1 .1h1.8c.3 0 .5 0 .8-.1.2 0 .5-.1.7-.1.3-.1.5-.1.8-.2l3.8-1 4.3-1.2.2-.1.2-.1s.1 0 .1-.1l.9-.3c.5-.2.9-.4 1.3-.7.1-.1.2-.1.3-.2l.6-.6c.5-.6 1-1.1 1.4-1.7.5-.7.9-1.3 1.2-1.9.4-.8.6-1.5.7-2.3.1-.9-.1-1.8-.5-2.6-.5-1.1-1-2.3-1.6-3.5-.5-1.1-1.1-2.2-1.9-3.4-.6-1-1.2-2.1-2-3.3l-2-3.2-.2-.3-1.8-2.9c-.7-1.2-1.4-2.3-2-3.3-.7-1.2-1.3-2.3-1.8-3.4-.6-1.1-1.1-2.2-1.5-3.3 0-.5-.1-1-.1-1.6v-1.8c0-.6.1-1.2.1-1.9l.2-1.9v-.3l.1-1.6c.1-.7.1-1.4.2-2 .1-.7.1-1.4.1-2.1v-1.5c2.1-1.5 4.2-2.9 6.3-4.4 2.6-1.7 5-3.1 7.1-4.2.5-.2.9-.4 1.4-.6.1 0 .3-.1.5-.1.8-.2 1.7-.3 2.5-.5.5-.1 1-.1 1.6-.2.3.7.7 1.4 1.2 2 .6.8 1.4 1.5 2.4 2.1.8.5 1.6.9 2.7 1.4.9.4 1.8.7 2.7 1 1 .3 1.9.7 2.9 1 1 .4 1.7.8 2.3 1.3.7.5 1.2 1.1 1.6 1.8.5.8.7 1.7.9 2.8 0 .2.1.4.2.6.2.4.5.7.8 1 .3.3.6.5 1 .7.3.2.7.3 1.1.4.3.1.7.1 1.1.1h.8c.3 0 .5-.1.8-.1.3 0 .6-.1.8-.1l.8-.2c.2 0 .5-.1.7-.1.3 0 .5-.1.7-.1.3 0 .5-.1.8-.1h.9c.2 0 .3 0 .5-.1l9.2-3c.1 0 .2-.1.3-.2h.2c.6-.4 1.3-.9 1.8-1.4.8-.7 1.4-1.4 1.9-2.1.7-.9 1.1-1.8 1.5-2.8.4-1.1.5-2.3.4-3.5-.3.3-.4 0-.7-.3zm-103.9 47.6c-.1 0-.2.1-.3.1-.6.3-1.2.7-1.9 1.1-.7.4-1.3.9-2 1.4-.7.5-1.4 1-2.1 1.6-.3.2-.5.4-.8.7-.6-.5-1.3-.9-1.9-1.4-2.6-2.1-4.9-4.5-6.8-6.9-1.8-2.3-3.3-4.8-4.4-7.3 2.7.5 5.4 1 8 1.4 2.8.4 5.7.8 8.5 1.1 2.7.3 5.4.4 8 .6.5.4.9.8 1.3 1.3.3.5.6 1.1.8 1.7.2.6.3 1.2.5 2 0 .2 0 .4.1.5l-7 2.1z" fill="#231F20"/><path class="st2" d="M67.2 369.6c.1 1 0 2-.3 2.9-.3.9-.7 1.7-1.3 2.4-.5.7-1.1 1.3-1.7 1.9-.6.5-1.2 1-1.7 1.4h-1c-.3 0-.6 0-.9.1-.3 0-.5.1-.8.1-.3 0-.5.1-.8.1-.3.1-.5.1-.8.1-.3 0-.5.1-.7.1-.2 0-.5.1-.7.1h-.7c-.3 0-.5 0-.8-.1-.2-.1-.5-.1-.7-.2-.2-.1-.4-.3-.6-.4-.2-.2-.4-.4-.5-.7-.2-1.4-.5-2.5-1.1-3.4-.5-.9-1.2-1.7-2.1-2.3-.8-.6-1.7-1.1-2.7-1.5-1-.4-2-.7-3-1.1-.9-.3-1.8-.6-2.7-1-.9-.4-1.7-.8-2.5-1.3s-1.5-1.1-2.1-1.8c-.6-.7-1.1-1.6-1.4-2.7-3 .2-5.8.7-8.5 1.6-2.7.8-5.3 1.9-7.8 3.2-2.5 1.3-4.9 2.8-7.3 4.3-2.4 1.6-4.7 3.2-6.9 4.8v2.2c0 .7-.1 1.4-.1 2.1 0 .7-.1 1.3-.2 2s-.1 1.3-.2 1.9c-.1.6-.1 1.3-.2 1.9-.1.6-.1 1.3-.1 1.9 0 .6-.1 1.3 0 1.9 0 .6 0 1.3.1 1.9.5 1.2 1 2.4 1.6 3.6.6 1.2 1.2 2.3 1.8 3.4.6 1.1 1.3 2.2 2 3.3.7 1.1 1.4 2.2 2 3.2.7 1.1 1.3 2.1 2 3.2s1.3 2.2 2 3.3c.6 1.1 1.2 2.2 1.8 3.4.6 1.1 1.1 2.3 1.6 3.4.3.7.4 1.3.4 1.9 0 .6-.2 1.2-.5 1.8-.3.6-.7 1.1-1.1 1.6-.4.5-.9 1.1-1.4 1.6l-.6.6c-.4.2-.7.4-1.1.6-.4.2-.7.3-1.1.4-.4.1-.8.1-1.2.2-.4 0-.8.1-1.2 0h-.9c-.3 0-.6-.1-.9-.1-.3 0-.6-.1-1-.1-.3 0-.6-.1-1-.1-.3 0-.7-.1-1-.1-.3 0-.7-.1-1-.1-.3 0-.7-.1-1-.1H2.7c-.3 0-.6 0-.9.1-.3 0-.6.1-.9.1-.3.1-.6.1-.9.2h-5.9c-.9 0-1.8.1-2.6.2-.9.1-1.7.3-2.5.5s-1.6.5-2.4.8c-.8 2.1-1.1 4-1 5.6.1 1.7.6 3.2 1.4 4.5.8 1.4 1.8 2.6 2.9 3.7 1.1 1.2 2.4 2.2 3.6 3.3.6.5 1.1 1 1.7 1.5.6.5 1.1 1 1.6 1.5s1 1 1.4 1.5c.4.5.8 1.1 1.2 1.6v.6c0 .2-.1.4-.2.6-.1.2-.2.4-.4.6l-.6.6v1c0 .3.1.6.2.8.1.3.2.5.3.7.1.2.2.5.4.7.1.2.3.5.4.7.1.2.2.5.3.7.1.2.2.4.2.7.1.2.1.4.1.7v.3c0 .1 0 .2-.1.3 0 .1-.1.2-.1.3 0 .1-.1.2-.1.3h-2.1c-.3 0-.6.1-1 .1-.3 0-.7.1-1 .1-.3.1-.7.1-1 .2-.3.1-.7.1-1 .2-.3.1-.7.1-1 .2-.3 0-.6.1-.9.1h-.9c-.5 0-1-.1-1.4-.2-.4-.1-.8-.3-1.2-.6-.4-.3-.7-.6-.9-1.1-.3-.5-.5-1-.7-1.7-.9-.1-1.7-.3-2.3-.6-.6-.3-1.1-.7-1.4-1.2-.4-.5-.6-1.1-.9-1.7-.2-.6-.4-1.3-.6-2-.2-.6-.4-1.3-.6-2-.2-.6-.5-1.3-.9-1.8s-.8-1-1.4-1.4c-.6-.4-1.3-.6-2.1-.7-.2 1-.4 1.8-.8 2.4-.3.7-.7 1.2-1.2 1.7s-1 .9-1.5 1.2c-.5.4-1.1.7-1.7 1-.5.3-1 .5-1.5.9-.5.3-1 .7-1.4 1-.5.4-.9.8-1.3 1.3s-.7 1.1-1 1.7c-.7-.5-1.3-1.1-1.9-1.8-.6-.7-1.2-1.4-1.7-2.2-.5-.8-1-1.6-1.4-2.5-.4-.9-.7-1.8-1-2.8l.6-.3c.2-.1.5-.2.7-.2.3-.1.5-.1.8-.2.3-.1.5-.1.8-.2.5-.1.9-.2 1.4-.3.4-.1.9-.2 1.3-.4s.7-.4 1-.6c.3-.2.5-.5.7-.8.1-.2.2-.4.2-.6 0-.2.1-.4 0-.7 0-.2-.1-.5-.1-.7-.1-.3-.2-.5-.3-.8l-.4-4.3-2.4-.8-6.6-1.5c-2.2-.5-4.4-1.1-6.6-1.6-2.2-.6-4.4-1.3-6.5-2-2.1-.7-4.3-1.5-6.3-2.4-1.1-2.8-2.5-5.2-4.2-7.2-1.7-2-3.6-3.7-5.6-5.1-2.1-1.4-4.3-2.6-6.5-3.7-2.3-1.1-4.6-2-7-2.9-2.5-1-4.9-2-7.2-3.1s-4.5-2.3-6.6-3.8c-2-1.5-3.9-3.2-5.4-5.3-1.6-2.1-2.9-4.6-3.8-7.5-.2-.5-.3-1-.4-1.5l-.3-1.5c-.1-.5-.2-1.1-.2-1.6-.1-.5-.1-1.1-.2-1.6-.1-1.1-.2-2.2-.4-3.3-.2-1.1-.4-2.1-.7-3.1-.3-1-.8-1.9-1.4-2.8-.6-.8-1.4-1.6-2.4-2.2-.5 0-1-.1-1.4-.2-.5-.1-.9-.3-1.3-.4-.4-.2-.9-.4-1.3-.6l-1.2-.6-1.2-.6c-.4-.2-.8-.4-1.2-.5-.4-.2-.8-.3-1.3-.4-.4-.1-.9-.2-1.3-.2-.3 0-.6 0-.9.1-.3 0-.6.1-.9.2-.3.1-.6.2-.9.4-.3.2-.6.4-1 .6-1.9 1.7-3.9 3.2-6 4.4-2.1 1.3-4.2 2.3-6.3 3.2-2.2.8-4.4 1.5-6.7 1.9-2.3.4-4.6.6-6.9.6-.5 0-.9 0-1.4-.1-.5 0-.9-.1-1.4-.1-.5 0-.9-.1-1.4-.2-.5-.1-.9-.1-1.4-.2-.3-.2-.7-.3-1-.4-.3-.1-.7-.3-1-.4-.3-.1-.7-.3-1-.4-.3-.1-.7-.2-1-.4-.7-.2-1.4-.5-2.1-.7-.7-.3-1.3-.5-2-.8-.7-.3-1.3-.6-1.9-1l-1.8-1.2c4.3-.8 8.7-1.9 13.1-3.1 4.4-1.2 8.9-2.7 13.4-4.3 4.5-1.6 8.9-3.4 13.3-5.3s8.7-4.1 12.9-6.3h1.2c.7 0 1.4.1 1.9.4.5.2 1 .6 1.4.9.4.4.8.9 1.2 1.4.4.5.7 1.1 1 1.6l.9 1.5c.3.5.7 1 1.1 1.4.4.4.8.8 1.3 1.1.5.3 1 .6 1.7.8 1.9-1.7 3.8-3.4 5.7-5 1.9-1.6 3.8-3.1 5.7-4.4 1.9-1.3 3.8-2.5 5.8-3.5s4-1.7 6.1-2.2c1.1-.1 2.3-.1 3.4-.2 1.1 0 2.3-.1 3.4-.1h6.8c1.1 0 2.2 0 3.2.1 1.1 0 2.2.1 3.2.1 1.1 0 2.1.1 3.2.1s2.1.1 3.2.1c1 0 2.1.1 3.1.1s2.1.1 3.1.1 2.1.1 3.2.1 2.1 0 3.2.1h6.8c1.1 0 2.3 0 3.4-.1 1.1 0 2.3-.1 3.4-.2l1-1-.1-.6c-.1-.1-.2-.1-.3-.2l-.3-.3c-.1-.1-.1-.2-.2-.3 0-.1-.1-.2-.1-.4v-.3c0-.1 0-.2.1-.3 0-.1.1-.2.1-.3.1-.1.1-.2.2-.3.6-.3 1.2-.5 1.8-.6.6-.2 1.2-.3 1.9-.4.6-.1 1.3-.1 1.9-.2.7 0 1.3-.1 2-.1.5 0 1.1-.1 1.6-.1s1.1-.1 1.6-.1c.5-.1 1.1-.1 1.6-.2l1.5-.3c-.4-.5-.8-1-1.3-1.3-.5-.4-1-.7-1.6-.9-.6-.2-1.2-.4-1.8-.5-.6-.1-1.3-.2-1.9-.2h-.8c-.3 0-.5 0-.8.1-.3 0-.5.1-.8.1-.2 0-.5.1-.7.2 0-.4.2-.8.5-1.2.3-.4.7-.8 1.1-1.2.5-.4 1-.8 1.5-1.1.6-.3 1.2-.6 1.8-.8.4-.1.8-.2 1.3-.3.4-.1.9-.2 1.3-.2.4-.1.9-.1 1.3-.1h1.3c.9 0 1.8.1 2.6.2.9.1 1.7.3 2.6.4.9.2 1.7.4 2.5.6l2.4.6.6-1c0-.2.1-.5.1-.8 0-.3.1-.6.1-.8.1-.3.1-.5.3-.7.1-.2.2-.4.4-.5.1 0 .1-.1.2-.1s.1-.1.2-.1h2.3c.3 0 .7.1 1 .1.3 0 .6.1.9.1.3 0 .5.1.8.1.3.1.6.1.9.2.3.1.6.1.9.1.3 0 .6.1.9.1h.8c.3 0 .7 0 1-.1.3 0 .7-.1 1-.2.3-.1.6-.2.9-.4.3-.2.6-.4.9-.7 0-.3-.1-.5-.1-.7v-.6c0-.2 0-.3.1-.5 0-.1.1-.3.2-.4.1-.2.3-.4.4-.5.2-.1.4-.3.6-.3.2-.1.4-.2.6-.2.2-.1.4-.1.6-.1 1.1.3 2.2.6 3.4.9 1.2.3 2.4.6 3.6.8 1.2.2 2.5.5 3.8.6 1.3.2 2.6.3 3.8.3h1.7c.6 0 1.2-.1 1.7-.1.6-.1 1.2-.1 1.7-.3.6-.1 1.1-.2 1.7-.4.2-.4.3-.8.4-1.2.1-.4.1-.8 0-1.1 0-.4-.1-.7-.2-1.1-.1-.3-.2-.7-.3-1-.1-.2-.1-.5-.2-.7-.1-.2-.1-.5-.2-.7-.1-.3-.1-.5-.1-.8v-1.4c0-.1 0-.2.1-.3 0-.1 0-.2.1-.3.7.1 1.2.3 1.7.6s1 .7 1.4 1.1c.4.4.8 1 1.2 1.5.4.5.7 1.1 1.1 1.7.3.4.5.9.8 1.3.3.4.6.9.9 1.3.3.4.7.8 1 1.1.4.4.7.7 1.2 1 .1.1.9.7 2 1.5s2.6 1.8 4 2.9c1.5 1 2.9 2.1 4.1 2.9 1.2.8 2.1 1.5 2.4 1.7.7 2.8 1.5 5.4 2.5 7.8.9 2.5 2 4.7 3.2 6.9 1.2 2.1 2.5 4.1 3.9 6 .9 1.4 2.5 3.1 4.2 4.7zM-18 418.9l.1-.5c-.2-.4-.3-.8-.5-1.3-.1-.4-.2-.9-.3-1.3-.1-.5-.1-.9-.2-1.4-.1-.5-.1-.9-.2-1.4-.1-.8-.2-1.6-.3-2.3-.1-.8-.3-1.5-.5-2.3-.2-.7-.6-1.4-1-2.1-.5-.7-1-1.3-1.8-1.8l-.2-.1c-2.8-.1-5.6-.3-8.5-.6-2.8-.3-5.7-.6-8.5-1.1-2.8-.4-5.7-.9-8.5-1.5s-5.6-1.2-8.5-2l-.4.1c-.4.4-.7.8-.8 1.3-.2.5-.2 1-.2 1.6 0 .5.1 1.1.2 1.5.1.5.2.9.3 1.2 1.3 3.1 3 6 5.1 8.6 2.1 2.6 4.5 5 7 7.1 2.6 2.1 5.3 3.9 8.1 5.5 2.8 1.5 5.5 2.7 8.2 3.6.2.1.3.2.5.2.2.1.3.1.5.2.2 0 .3.1.5.1h1.2c.1 0 .2-.1.3-.1.1 0 .2-.1.3-.1.3-.1.6-.3.9-.6.3-.3.5-.6.8-.9l.6-1.2c.2-.5.3-.9.4-1.5l-.2-.4-.4-.1c-.1.1-.2.1-.4.1-.1 0-.2.1-.3.1h-.6c-.2 0-.4 0-.6-.1-.2-.1-.4-.1-.6-.2l-.6-.3c-.2-.1-.4-.3-.6-.4-.2-.1-.4-.3-.6-.4l-.6-.3c-.2-.1-.5-.2-.7-.2-.2-.1-.5-.1-.8-.1h-.6c-.1 0-.2 0-.3.1-.1 0-.2.1-.3.1-.2 0-.4 0-.7-.1-.2-.1-.5-.1-.7-.2-.2-.1-.5-.2-.7-.4-.2-.2-.4-.3-.6-.5l-.4-.4c-.1-.1-.2-.3-.3-.4-.1-.1-.1-.3-.2-.4 0-.1-.1-.3-.1-.4.8-.6 1.5-1.2 2.2-1.8.7-.6 1.4-1.1 2.1-1.6.7-.5 1.3-.9 2-1.3.6-.4 1.3-.8 1.9-1.1.1.2.3.5.5 1 .2.4.5 1 .7 1.5.3.5.5 1 .7 1.4.2.4.3.6.3.7l.2.2c.2.1.4.1.7.2.2.1.5.1.7.2.2 0 .5.1.7.1h.7c.4 0 .8 0 1.2-.1.4-.1.7-.1 1.1-.2.3-.1.7-.3 1-.4.1-.3.3-.5.6-.8m23.2-1l-9-11.3-.3-.1h-1.2l-.4.3-3 11.7.1.4.8.7.4.1c.8-.2 1.5-.4 2.3-.5.8-.1 1.6-.3 2.5-.3.8-.1 1.7-.2 2.6-.2h4.7l.4-.2.1-.6" fill="#FFF"/></svg>