<?xml version="1.0" encoding="UTF-8"?>
<svg xmlns="http://www.w3.org/2000/svg" xmlns:xlink="http://www.w3.org/1999/xlink" viewBox="0 0 200 200"><defs><path id="a" d="M34.8 0h130.8v200H34.8z"/></defs><clipPath id="b"><use xlink:href="#a" overflow="visible"/></clipPath><path class="st0" d="M165.7 62.4l-6.6 3c-9.4 4.2-18.3 8.2-27.3 8.2h-.1c-2.7.1-12.7.2-20.2-7-1.4-1.4-2.6-2.8-3.6-4.3-1.2-1.9-2.6-4.6-3.6-8.1-.5-1.5-.8-2.9-1-4-.1-.3-.1-.5-.2-.8-.9-4.8-1.4-10.8-.7-18.1-1.1 1.5-2.6 3.5-4.1 6.2-1.7 2.9-4.7 8.3-6.2 16.1-.5 2.5-.9 6.2-.7 10.8-1.6-1.8-3.6-4.2-5.6-7.4-1.7-2.8-3.4-6.3-5-10.7-.4-1.2-.7-2.3-1-3.3-1.6-5.8-2.1-10.4-2.4-13.6-.3-3.3-.5-7.7-.2-12.9-2.7 3.5-4.4 6.7-5.8 9.3-1.3 2.5-3.5 7.1-5 13-1.2 4.8-1.7 9-1.8 12.5-.3-.4-.6-.8-.9-1.1 0 0 0-.1-.1-.1-.6-.8-1.1-1.5-1.6-2.3 0 0 0-.1-.1-.1l-.6-.9c-.1-.2-.2-.4-.4-.6.1-.2.1-.3 0-.4-.2-.3-.4-.6-.5-.9-1.9-3.2-3.8-6.9-5.4-11.1-1-2.7-1.8-5.4-2.4-7.7-1.6-6.4-2-12.2-2-16.7 0-3.8.4-6.9.8-9.4-1.5 1.8-3.3 4.2-5 7.1-1.4 2.4-3.1 5.8-4.5 10.2-1.1 3.5-2.4 8.9-2.4 15.6v1.6c0 .5 0 1 .1 1.5v.1c0 .5.1 1.1.1 1.6.3 3.4 1 6.1 1.3 7.6 1.8 6.9 4.6 11.7 6.2 14.3 6.9 11 17.1 18.7 23.8 22 5.4 3.3 12.2 6 19.8 8H44.1l3.1 11.6c.2.7 1.3 4.7 4.8 9 3.3 4.2 7.8 7.4 13 9.4l-5.8 9.3c-7.8 12.5-7.5 28.4.8 40.4 7.1 10.3 19 19.4 35.2 27.1l7.6 3.6 30.2-30.8c5.3-5.4 7.3-13.2 5.2-20.5L134 134c8.1-4 16.8-8.8 21.7-11.5 7.4-4.1 7.8-12.8 8-17.5l.7-15.5h-17.1c5.1-1.4 10.2-3.1 15.1-5.4l2.2-1 .1-.1 1-20.6z" clip-path="url(#b)" fill="#FFF"/><path class="st1" d="M122.8 159.4l-18 18.3c-.9-2.4-1.8-4.6-2-5.2-3.4-10.7-.7-25.9 16.9-36.1l4.8 16.4c.7 2.4 0 4.9-1.7 6.6" clip-path="url(#b)" fill="#FFB81C"/><path class="st2" d="M161.1 69.2l-.5 11.3C130 94.4 92.5 89.8 73 78c-12.4-6-38.2-28.8-26.3-60.2C46.9 34.7 59.6 55 69.2 62c-1.7-9.4.9-24.4 4.2-30.9.7 14.7 6.1 33 23.7 42.8-2.7-7.2-2-20.9 1.3-27.2.3 19.9 15.5 31.5 33.1 31.2 10.2 0 19.8-4.3 29.6-8.7M49.5 93.9l1.7 6.3c.2.6 3.8 13.6 20.2 17l-8.8 14c-7 11.1-6.7 25.1.7 35.8 6.7 9.7 18 18.3 33.6 25.7l-3.5-8.1c-1.7-4-4.4-7.5-8-9.9-6-4.2-10.6-8.7-13.9-13.4-5.1-7.4-5.3-17.1-.5-24.8l20.2-32.2c-.2-.1-.4-.3-.6-.4-1.7-1.1-3.9-2-3.9-2l3.9-.3c11.5-.4 22 2 27.1 2.2h31.6c0 .2-.2 4.9-.7 6.1-.1.2-.2.3-.4.4-10.8 5.8-19.8 10.4-27.1 14-10.3 5.1-19.1 11.9-24.2 20.3-5.7 9.3-6.9 19.7-4 30.1 1.3 4.4 6.2 16 8.8 20.3l28.1-28.6c4.2-4.3 5.8-10.6 4.1-16.4l-5.2-18.1c8.6-4.1 18.9-9.7 24.7-12.9 5.4-3 5.7-9.6 5.9-14 .2-4.9.5-11.1.5-11.1H49.5zm27.7 14c-4.7-.4-8.6-1.7-11.5-4h14l-2.5 4zm45.6 51.5l-18 18.3c-.9-2.4-1.8-4.6-2-5.2-3.4-10.7-.7-25.9 16.9-36.1l4.8 16.4c.7 2.4 0 4.9-1.7 6.6" clip-path="url(#b)" fill="#2A5234"/><path class="st2" d="M121 113.5h-13.5c-1.9 0-3-2.1-2.1-3.8l.4-.7h-4.1l2.8-2.4c.5-.5 1.3-.5 1.9-.2l14.6 7.1z" clip-path="url(#b)" fill="#2A5234"/></svg>