<?xml version="1.0" encoding="utf-8"?><svg xmlns="http://www.w3.org/2000/svg" width="250" height="250" viewBox="0 0 250 250"><path class="st0" d="M240.1 136.3c2.9 1.2 5.8 2.5 8.6 3.9-2.1-8.4-4.9-16.4-8.4-24 3.1.7 6.1 1.4 9.1 2.3-3.5-7.9-7.7-15.4-12.4-22.2 3.1.1 6.2.3 9.4.7-4.8-7.2-10.2-13.8-16.1-19.7 3.1-.4 6.2-.7 9.4-1-6-6.3-12.5-11.8-19.3-16.6 3-1 6-1.8 9.1-2.6-7-5.1-14.3-9.5-21.9-13 2.8-1.5 5.6-2.8 8.5-4.1-7.8-3.8-15.7-6.8-23.8-9 2.5-1.9 5-3.8 7.6-5.5-8.3-2.4-16.7-4-25-4.7 2.1-2.3 4.3-4.6 6.6-6.8-8.6-1-17.1-1-25.4-.3 1.7-2.6 3.4-5.2 5.3-7.8-8.7.6-17 2-25.1 4.1 1.2-2.9 2.5-5.8 3.9-8.6-8.4 2-16.4 4.9-24 8.4.7-3.1 1.4-6.1 2.3-9.1-7.9 3.5-15.4 7.7-22.2 12.4.1-3.1.3-6.3.7-9.4-7.2 4.8-13.8 10.2-19.7 16.1-.4-3.1-.8-6.2-1-9.4-6.3 6-11.8 12.5-16.6 19.3-1-3-1.8-6-2.6-9.1-5.1 7-9.5 14.3-13 21.9-1.5-2.8-2.8-5.6-4.1-8.5-3.8 7.8-6.8 15.7-9 23.8-1.9-2.5-3.8-5-5.5-7.6-2.4 8.3-4 16.7-4.7 25-2.3-2.1-4.6-4.3-6.8-6.6-1 8.6-1 17.1-.3 25.4-2.6-1.7-5.2-3.4-7.8-5.3.6 8.7 2 17.1 4.1 25.1-2.9-1.2-5.8-2.5-8.6-3.9 2.1 8.4 4.9 16.4 8.4 24-3-.7-6.1-1.4-9.1-2.3 3.5 7.9 7.7 15.4 12.4 22.2-3.1-.1-6.3-.3-9.4-.7 4.8 7.2 10.2 13.8 16.1 19.7-3.1.4-6.2.8-9.4 1 6 6.3 12.5 11.8 19.3 16.6-3 .9-6 1.8-9.1 2.6 7 5.1 14.3 9.5 21.9 13-2.8 1.5-5.6 2.8-8.5 4.1 7.8 3.8 15.7 6.8 23.8 9-2.5 1.9-5 3.8-7.7 5.5 8.3 2.4 16.7 4 25 4.7-2.1 2.3-4.3 4.6-6.6 6.8 8.6.9 17.1 1 25.4.3-1.7 2.6-3.4 5.2-5.3 7.8 8.7-.6 17.1-1.9 25.1-4.1-1.2 2.9-2.5 5.8-3.9 8.6 8.4-2 16.4-4.9 24-8.4-.7 3.1-1.4 6.1-2.3 9.1 7.9-3.5 15.4-7.7 22.2-12.4-.1 3.1-.3 6.3-.7 9.4 7.2-4.8 13.8-10.2 19.7-16.1.4 3.1.7 6.2 1 9.4 6.3-6 11.8-12.5 16.6-19.3.9 3 1.8 6 2.6 9.1 5.1-7 9.5-14.3 13-21.9 1.5 2.8 2.8 5.6 4.1 8.5 3.8-7.8 6.8-15.7 9-23.8 1.9 2.5 3.8 5 5.5 7.6 2.4-8.3 4-16.7 4.7-25 2.3 2.1 4.6 4.3 6.8 6.6.9-8.6 1-17.1.3-25.5 2.6 1.7 5.2 3.4 7.8 5.3-.4-8.6-1.8-17-4-25" fill="#FFF"/><path d="M234.1 129.7c2.8 1 5.6 2 8.3 3.2-2.4-7.8-5.4-15.3-9.1-22.2 2.9.5 5.8 1 8.7 1.7-3.7-7.3-8-14.1-12.9-20.3 2.9 0 5.9 0 8.9.2-4.9-6.6-10.3-12.5-16.2-17.8 2.9-.6 5.8-1 8.8-1.4-6-5.6-12.4-10.5-19-14.7 2.8-1.1 5.6-2 8.4-2.9-6.8-4.5-14-8.2-21.3-11.2 2.5-1.5 5.1-3 7.8-4.3-7.5-3.2-15.2-5.6-22.9-7.3 2.2-1.9 4.5-3.8 6.9-5.6-8-1.9-15.9-2.9-23.8-3.2 1.9-2.3 3.8-4.5 5.8-6.7-8.2-.5-16.2-.1-24 1 1.4-2.6 3-5.1 4.6-7.6-8.1 1-16 2.7-23.5 5.1 1-2.8 2-5.6 3.2-8.3-7.8 2.4-15.3 5.4-22.2 9.1.5-2.9 1-5.8 1.7-8.7-7.3 3.7-14.1 8-20.3 12.9 0-2.9 0-5.9.2-8.9-6.6 4.9-12.5 10.3-17.8 16.2-.6-2.9-1-5.8-1.4-8.8-5.6 6-10.5 12.3-14.7 19-1.1-2.8-2-5.6-2.9-8.4-4.5 6.8-8.2 14-11.2 21.3-1.5-2.5-3-5.1-4.3-7.8-3.2 7.5-5.6 15.2-7.3 22.9-1.9-2.2-3.8-4.5-5.6-6.9-1.9 8-2.9 15.9-3.2 23.8-2.3-1.9-4.5-3.8-6.7-5.9-.5 8.2-.1 16.2 1 24-2.6-1.4-5.1-3-7.6-4.6 1 8.1 2.7 16 5.1 23.5-2.8-1-5.6-2-8.3-3.2 2.4 7.8 5.4 15.3 9.1 22.2-2.9-.5-5.8-1-8.7-1.7 3.7 7.3 8 14.1 12.9 20.3-3 0-5.9 0-8.9-.2 4.9 6.6 10.3 12.5 16.2 17.8-2.9.6-5.8 1-8.8 1.4 6 5.6 12.3 10.5 19 14.7-2.8 1-5.6 2-8.4 2.9 6.8 4.5 14 8.2 21.3 11.2-2.5 1.5-5.1 3-7.8 4.3 7.5 3.2 15.2 5.6 22.9 7.3-2.2 1.9-4.5 3.8-6.9 5.6 8 1.9 15.9 2.9 23.8 3.2-1.9 2.3-3.8 4.5-5.8 6.7 8.2.5 16.2.1 24-1-1.4 2.6-3 5.1-4.6 7.6 8.1-1 16-2.7 23.5-5.1-1 2.8-2 5.6-3.2 8.3 7.8-2.4 15.3-5.4 22.2-9.1-.5 2.9-1 5.8-1.7 8.7 7.3-3.7 14.1-8 20.3-12.9 0 2.9 0 5.9-.2 8.9 6.5-4.9 12.5-10.3 17.8-16.2.6 2.9 1 5.8 1.4 8.8 5.6-6 10.5-12.3 14.7-19 1 2.8 2 5.6 2.9 8.4 4.5-6.8 8.2-14 11.2-21.3 1.5 2.5 3 5.1 4.3 7.8 3.2-7.5 5.6-15.2 7.3-22.9 1.9 2.2 3.8 4.5 5.6 6.9 1.9-8 2.9-15.9 3.2-23.8 2.3 1.9 4.5 3.8 6.7 5.8.5-8.2.1-16.2-1-24 2.6 1.4 5.1 3 7.6 4.6-.9-8-2.6-15.9-5.1-23.4"/><path class="st1" d="M125 212.5c-17.3 0-33.4-5.1-47-13.7h-8.3c15.4 11.6 34.6 18.5 55.3 18.5 20.7 0 39.9-6.9 55.3-18.5H172c-13.6 8.6-29.7 13.7-47 13.7zm0-175c12.8 0 24.9 2.8 35.8 7.7 4.1.1 8.2.4 12 1-14-8.5-30.3-13.4-47.9-13.4-16.7 0-32.3 4.5-45.8 12.3h10.4c10.9-4.9 22.9-7.6 35.5-7.6zm82.3 46c.1 3.3-.1 6.8-.5 10.6 3.7 9.6 5.7 20.1 5.7 31 0 14.3-3.5 27.9-9.6 39.8l-2.3 12.9c10.4-14.9 16.6-33.1 16.6-52.7 0-15-3.6-29.1-9.9-41.6zM32.8 125c0 15.6 3.9 30.2 10.7 43.1l1.4-7.9c-4.7-10.8-7.4-22.7-7.4-35.2 0-23.4 9.2-44.7 24.3-60.4l1.4-7.9C44.5 73.5 32.8 97.9 32.8 125z" fill="#AC1F2D"/><path class="st0" d="M193 99c6.8-38.3-12.7-40.9-41.5-40.9H76.1l-4.8 27.4h108.4l-22.6 7c.4 2.1.3 4.9-.3 8.4-2.3 12.8-7.9 16.2-15.7 16.2h-26.4l23 42-4.7 26.7h53l4.7-26.7h-11.6l-13.6-24.5c15.9-5.2 23.9-15.5 27.5-35.6z" fill="#FFF"/><path class="st0" d="M116.5 95.6L80 101.9 69.9 159H58.3l-4.7 26.7h58.7L117 159h-11.7zm88.4 129.1h1.8v5.3h.6v-5.3h1.8v-.6h-4.2zm9.1-.6l-1.5 4.8-1.5-4.8h-1.1v5.9h.7v-5l1.6 5h.6l1.6-5v5h.6v-5.9z" fill="#FFF"/></svg>