<?xml version="1.0" encoding="utf-8"?><svg xmlns="http://www.w3.org/2000/svg" viewBox="0 0 107.2 55.7"><path class="st0" d="M84.7 5L87 .7H75.9l-.9.9c-.6.7-1.4 1.1-2.1 1.1-.9 0-1.7-.3-2.8-.8-2.2-.8-4.8-1.9-9.7-1.9-4.3 0-8.7 1.2-12 3.3-.8.5-1.5 1.1-2.2 1.7h-6.8c-4.3 0-14.7.9-19.1 9L0 51.7h21l-2.1 4H30l.9-1.2c1-1.4 1.6-1.6 2.6-1.6 1.6 0 2.8.4 4.3.9 1.9.7 4.3 1.5 7.9 1.5 4.8 0 9.5-1.2 13.4-3.5h8.8c4.3 0 14.7-.9 19.1-9l20.2-37.6H84.7V5z" fill="#FFF"/><path d="M39.4 6.4c-13.4 0-17.3 7.1-17.9 8.3L2.4 50.3h65.4c13.4 0 17.3-7.1 17.9-8.3l19.1-35.6H39.4zm37.2 38.3s-2.2 4.1-9 4.1H10.9L30.7 12s2.2-4.1 9-4.1h23.2l1.5-.1 1.6.1h30.4L76.6 44.7z"/><g fill="#FFF"><path class="st0" d="M86.2 47c-.9 0-1.7.7-1.7 1.7 0 .9.7 1.7 1.7 1.7.9 0 1.7-.7 1.7-1.7-.1-1-.8-1.7-1.7-1.7m0 3c-.7 0-1.3-.6-1.3-1.3 0-.7.6-1.3 1.3-1.3s1.3.6 1.3 1.3-.6 1.3-1.3 1.3z"/><path class="st0" d="M86.8 48.3c0-.3-.3-.6-.6-.6h-.8v1.9h.4v-.8h.3l.4.8h.4l-.4-.8c.2-.1.3-.3.3-.5m-.5.2h-.4v-.4h.4c.1 0 .2.1.2.2s-.1.2-.2.2z"/></g><g fill="#FFF"><path class="st0" d="M87.7 35.5l-3.3 2.1h-.2c-.1 0-.1-.1-.1-.2v-3.9l1.5-2.8v-.9l-3.4 6.3c0 .1-.1.1-.1.2v4.6L81 43.1c-.1.1 0 .2.1.3.1.1.2 0 .3-.1l1.2-2.1 3.9-2.5c.1 0 .1-.1.2-.2l2.7-5.1-.8.5-.9 1.6z"/><path class="st0" d="M92.4 26.8l-3.3 2.1h-.2c-.1 0-.1-.1-.1-.2v-3.9l1.5-2.8v-.9l-3.4 6.2c0 .1-.1.1-.1.2v4.6l-1.2 2.1c-.1.1 0 .2.1.3.1.1.2 0 .3-.1l1.2-2.1 3.9-2.5c.1 0 .1-.1.2-.2l2.7-5.1-.8.5-.8 1.8z"/><path class="st0" d="M97.1 18l-3.3 2.1c-.1 0-.2.1-.2 0-.1 0-.1-.1-.1-.2V16l1.5-2.8v-.9l-3.4 6.2c0 .1-.1.1-.1.2v4.6l-1.2 2.1c-.1.1 0 .2.1.3.1.1.2 0 .3-.1l1.2-2.1 3.9-2.5c.1 0 .1-.1.2-.2l2.7-5.1-.8.5-.8 1.8z"/><path class="st0" d="M102.3 8.2c-2.8.9-4.8 2.2-6.1 3.5v3.1L95 16.9c-.1.1 0 .2.1.3.1.1.2 0 .3-.1l1.2-2.1 2.5-1.6v-3.2c.9-.5 1.9-1 2.9-1.4l.3-.6z"/></g><g fill="#FFF"><path class="st0" d="M16.5 35.5l-3.3 2.1H13c-.1 0-.1-.1-.1-.2v-3.9l.9-1.7v-.9L11 36.1c0 .1-.1.1-.1.2v4.6L9.7 43c-.1.1 0 .2.1.3.1.1.2 0 .3-.1l1.2-2.1 3.9-2.5c.1 0 .1-.1.2-.2l3.7-6.9-.8.5-1.8 3.5z"/><path class="st0" d="M22.9 23.6L21 27.1l-3.3 2.1h-.2c-.1 0-.1-.1-.1-.2v-3.9l.9-1.7v-.9l-2.7 5.1c0 .1-.1.1-.1.2v4.6l-1.2 2.1c-.1.1 0 .2.1.3.1.1.2 0 .3-.1l1.2-2.1 3.9-2.5c.1 0 .1-.1.2-.2l3.7-6.9-.8.6z"/><path class="st0" d="M18.9 26.6c.1.1.2 0 .3-.1l1.2-2.1 3.9-2.5c.1 0 .1-.1.2-.2l3.7-6.9-.8.5-1.9 3.5-3.3 2.1H22c-.1 0-.1-.1-.1-.2v-3.9l.9-1.7v-.9l-2.7 5.1c0 .1-.1.1-.1.2v4.6l-1.2 2.1c0 .2 0 .3.1.4z"/><path class="st0" d="M23.3 17.6c.1.1.2 0 .3-.1l1.2-2.1 2.5-1.6v-3.1c.8-.5 1.8-1 2.9-1.4l.3-.6c-2.8 1-4.8 2.4-6.1 3.7v2.8l-1.2 2.1c0 .1 0 .2.1.3z"/></g><path class="st1" d="M76.6 44.7s-2.2 4.1-9 4.1H10.9L30.7 12s2.2-4.1 9-4.1h23.2l1.5-.1 1.7.1h30.3L76.6 44.7z" fill="#006241"/><path class="st0" d="M47.7 27.6H32.3l.8-1.6h-10l-1.7 3.1h27.3c-.4-.5-.7-1-1-1.5zM43.9 20H32.3l.8-1.6H27l-1.7 3.1h19c0-.5-.2-1-.4-1.5zm8.3 15.2H32.3l.8-1.6H19l-1.7 3.1h35.5c-.1-.4-.3-1-.6-1.5zM61.8 20c.2.2.3.5.5.7.2.3.4.5.6.8h12.9l-.9 1.6h13.3l1.7-3.1H61.8zm6.4 16.7h7.5l-.8 1.6H80l1.7-3.1H68.3c0 .5-.1 1-.1 1.5zm-1-7.6h8.5l-.8 1.6h9.2l1.7-3.1H66.5c.2.5.5 1 .7 1.5z" fill="#FFF"/><path d="M60.3 1.4c-4.1 0-8.1 1.1-11.2 3.1-3.9 2.5-5.9 6.2-5.9 10.6 0 5.5 3 10.2 5.7 14.3 2.3 3.5 4.4 6.9 4.4 10.2 0 1.9-.9 4-2.4 5.6-1.3 1.3-3.5 3-7.3 3-1.6 0-5.6-.3-7.8-2.9-.7-.9-1.2-2.2-.5-3.6H28l-6.8 12.6h8l.5-.6c1.1-1.6 2.2-2.2 3.7-2.2 1.8 0 3.2.5 4.7 1 1.9.7 4.1 1.4 7.5 1.4 6.3 0 12.1-2.1 16.4-6 4-3.6 6.3-8.3 6.3-13 0-5.4-3.2-10.1-6-14.2-2-2.9-3.9-5.7-3.9-7.9 0-2.3 1.6-4.9 6-4.9 6.6 0 7.4 4.3 7.4 4.4l.2 1.3h6.6l4.9-9.2 1.2-2.2h-8.2l-.5.4c-.6.7-1.7 1.5-3.1 1.5-1.1 0-2.1-.4-3.3-.9-2.1-.8-4.7-1.8-9.3-1.8z"/><path class="st0" d="M77.1 3.6c-.8.9-2.2 2-4.3 2-3.5 0-5.3-2.7-12.5-2.7-6.9 0-15.6 3.6-15.6 12.2 0 9.7 10.1 16.6 10.1 24.5 0 4.3-3.6 10.1-11.2 10.1-7.5 0-10.5-4.6-10.2-6.6h-4.6l-5.2 9.6h4.7c1.2-1.7 2.6-2.8 5-2.8 4.4 0 6.4 2.4 12.2 2.4 12.8 0 21.2-9.1 21.2-17.4 0-9-9.9-16.2-9.9-22.1 0-4.1 3.4-6.4 7.5-6.4 8 0 8.9 5.6 8.9 5.6h4.4l4.5-8.4h-5z" fill="#FFF"/></svg>