<?xml version="1.0" encoding="utf-8"?>
<!-- Generator: Adobe Illustrator 24.3.0, SVG Export Plug-In . SVG Version: 6.00 Build 0)  -->
<svg version="1.1" id="Layer_1" xmlns="http://www.w3.org/2000/svg" xmlns:xlink="http://www.w3.org/1999/xlink" x="0px" y="0px"
	 viewBox="0 0 200 200" style="enable-background:new 0 0 200 200;" xml:space="preserve">
<style type="text/css">
	.st0{fill:#FFFFFF;}
	.st1{fill:#0A2240;}
	.st2{fill:#5F8DB5;}
</style>
<g>
	<g>
		<path class="st0" d="M76.3,199.9c-3.5,0-7.1-0.2-10.5-0.5h0c-1,0-22.1-0.6-48.7-36.1c-3-4.7-3.9-8.1-2.8-10.2
			c0.3-0.6,1.3-1.9,3.5-1.9c1.5,0,3.3,0.6,5.8,2c0.4,0.2,8.6,4.2,20.6,6.4C35,154.2,24,146,16.3,134.9c-0.3-0.3-6.8-9.2-4.7-20.1
			c1.2-6.4,5.2-12.1,11.7-16.9c-1.8-2-4.3-4.9-6.7-8.4C10.1,79.8,7.3,70.3,8.7,62c0.2-2.4,7.8-22.3,33.7-38.9
			c0.2-0.1,24.7-16.5,64.7-22c0.5-0.1,5.2-0.7,13.7-0.7c2,0,4.2,0,6.6,0.1c1.3,0,2.6,0.1,4.1,0.1c11.6,0.4,29,0.9,50.2,6.6l9.5,2.7
			l-8.4,5.6c-0.2,0.1-20.6,13.5-26.1,30.6c-4.2,12.9-1.7,28.1,7.4,44.9l2.6,4.9l-1.5,0.5l1,0.8c1.9,1.5,11.1,9.2,10.5,16.7
			c-0.1,1.1-0.4,2.1-0.8,3c0.4,0.4,0.8,1,1,1.6c0.4,0.7,0.9,2.5-0.5,5.3c-0.2,0.5-6.2,13.5-17.8,23.9c5.7,2.8,17.3,9.4,26.7,19.5
			c1.7,2.1,2.4,5.2,0,7.1c-0.8,0.6-2.1,1.1-5.8,1.1l-0.5,0c-0.2,0-0.6,0-1.3,0c-4.9,0-22.4,0.7-42,9.8
			C135.7,185.2,108.1,199.9,76.3,199.9z"/>
	</g>
	<g>
		<g>
			<path class="st0" d="M29.8,98c0,0-19.5-17.8-16.6-35.3c0,0,5.8-19.2,31.7-35.7c0,0,24.6-16,62.8-21.3c0,0,27.6-6.2,72.7,6
				c0,0-49.7,27.4-20.4,81.6c0,0-28.3,8.9-66.5-6.7c0,0-48.3-23.7-54.3,5.4L29.8,98z"/>
			<path class="st1" d="M58.3,163.7c-20.6-0.3-36-8.1-36-8.1c-10.9-6.1-3,6.1-3,6.1c26.2,35,46.9,35,46.9,35
				c35.7,3.8,68.7-14.1,68.7-14.1c23.6-11,44.4-10,44.4-10c3.9,0,4.5-0.4,4.5-0.4c1.4-1.2-0.3-3.3-0.3-3.3
				c-12.8-13.7-29.7-20.7-29.7-20.7C167,138,174,122.5,174,122.5c1.1-2.2,0.4-3.1,0.4-3.1c-0.5-2.1-4.2-0.7-4.2-0.7
				c11.2-6.1-5.7-19.5-5.7-19.5c-48,11.3-78.6-14-78.6-14l-1.9-4l-13.8-3.4L40,89.8L27.8,98c-24.6,14.9-9.4,35.3-9.4,35.3
				C32.5,153.5,58.3,163.7,58.3,163.7z"/>
			<g>
				<path class="st2" d="M107.6,28.3l7.2-14.1l-1.4,0.1C80.2,15.8,76,19.8,75.8,20l-0.1,0.1l-9.6,13.8l4.9-0.4L54.6,58.3L49,59.2
					l-5.5,16.2L45,75c27.2-6.8,58.6,2.5,58.9,2.6l1,0.3l0.6-16.9l-5.5-0.8c0.9-21.6,1.4-29.9,2.2-32H107.6z M100.6,27.3
					c-0.1,0.3-1.8,6.5-2.4,33.6l0,0.7l5.6,0.8l-0.5,13.3c-3.3-0.9-13.4-3.5-26.7-4.4l1.6-13.1l5.8,0.3l0.1-1.6L71,56.2l-0.8,1.6
					l6.4,0.3L74.5,71c-2.4-0.1-5-0.1-7.6-0.1c-6.8,0-14,0.6-20.9,2.2l4.2-12.4l5.3-0.9l18.7-28.4l-5.1,0.5l7.7-10.7
					c0.9-0.5,6.6-3.9,35.2-5.2l-5.5,10.7h-5.8L100.6,27.3z"/>
				<path class="st2" d="M85.3,45.2l1.6-12.7l-9.4,12.7H85.3z M83.9,43.6h-3.2l3.8-5.1L83.9,43.6z"/>
			</g>
			<path class="st1" d="M105.5,24.8l3.2-6.5c-20,0.5-30.6,4.3-30.6,4.3l-4.1,5.8l7.5-1.6C71.1,38.4,57.8,61.4,57.8,61.4l-5.8,1
				l-2.4,7c7.6-1.8,23-0.8,23-0.8l1.2-7.5L65.8,61l3.9-7.2c11.9-0.3,17.5,0.6,17.5,0.6l0,7.5l-6.7-0.6l-0.7,7.7
				c0,0,10.7,0.5,21.4,3.5c0,0,0.3-8.5,0.3-8.5l-4.7-0.8c-0.8-20.6,2.4-38.6,2.4-38.6H105.5z M87.2,47.8H74c4-9,14.7-19.7,14.7-19.7
				L87.2,47.8z"/>
			<path class="st0" d="M144.7,156.5c-5.5-2.2-9-8.5-9-8.5l-7.6-14.8c23.6-3.8,30.1-8.8,30.1-8.8c-15.3,4.5-30.8,6.1-30.8,6.1
				l0.9-2.8l-4-8l-5.6-1.9l-2.3,4.8l3.8,8.8l-7.2,0.6l0.6-3.2l-3.4-7.5l-6.3-2.6l-2.5,5.4l3.9,8.4l-7.4,0.2l1-3l-4.3-8.4l-6.1-1.5
				l-2.6,4.7l3.9,8.7c-5.6,0-8,0-8,0l1.4-3.6l-3.5-7.8l-6.6-2l-2.9,5.1l3.5,8.4C46.2,133,24,125.8,24,125.8
				C41.2,136.3,80,136.7,80,136.7l12.3,23c2.3,4.3,1.2,8.5,1.2,8.5c-30.6,11.4-65.8-4.1-65.8-4.1c-1.9-0.8-2.3-0.5-2.3-0.5
				c-0.5,0.2,0.4,1,0.4,1c12.1,11.1,40.3,12.5,40.3,12.5c18.7,0.5,33.6-5.5,33.6-5.5c5-2,12.5-4.6,12.5-4.6
				c34.1-11.4,55.2-5.9,55.2-5.9C156.3,155,144.7,156.5,144.7,156.5z M79.6,131.8H76l-3.2-7.2l1.2-2.4l3.3,1l2.9,6.5L79.6,131.8z
				 M118.6,122.9l1.2-2.7l3.2,1.2l2.9,6.2l-0.6,2.6l-3.1,0.2L118.6,122.9z M103.8,123.9l1.2-2.6l3.7,1.6l2.3,5.7l-0.3,2.5l-3.5,0.1
				L103.8,123.9z M88.6,124.6l1.2-2.4l3.4,1.1l2.9,6.4l-0.6,2.2h-3.6L88.6,124.6z M107,164.2l-3.3,1.1c-3.3-0.9-7.7-6.7-7.7-6.7
				l-12.2-22.3h11.8l10.2,19.4C108.4,160.5,107,164.2,107,164.2z M120.3,160.1l-3.5,1.1c-3.1-1.3-7-5.8-7-5.8l-10.9-19.6l11.5-0.4
				l8.8,16.4C121.6,156.5,120.3,160.1,120.3,160.1z M134.3,157.4l-3.7,0.7c0,0-5.4-2.1-8.7-8l-8.2-15.1l11.1-1.2l7.5,14.1
				C132.3,147.9,135.4,153,134.3,157.4z"/>
			<path class="st2" d="M22.4,159.2c0,0,31.3,18.8,69.7,7.7c0,0,0.8-1.7-0.8-5.3C91.3,161.6,60.9,172.6,22.4,159.2z"/>
			<path class="st2" d="M98.7,159.2l5.8-2.2c0,0,1.5,2.6,1.3,5.9l-1.8,0.6C104,163.5,100.8,161.7,98.7,159.2z"/>
			<path class="st2" d="M111.5,154.4l6-1.7c0,0,1.6,2.3,1.4,5.9l-2,0.5C116.9,159.1,113.7,157.7,111.5,154.4z"/>
			<path class="st2" d="M124.6,150.5l6.8-1.2c0,0,1.6,2.8,1.4,6.9l-1.9,0.3C130.9,156.5,127,154.3,124.6,150.5z"/>
			<path class="st2" d="M138.6,148.9c0,0,2.3,4.3,6.8,6c0,0,7.3-1.5,17.3,2.3C162.7,157.2,157.4,150.5,138.6,148.9z"/>
			<path class="st2" d="M30.7,170.3c0,0,20.2,12.2,53.1,7.5c0,0,11.4-2,20.7-5.7c0,0,19.3-8.7,42-10.5c0,0,13.6-1.1,23.4,2.6
				c0.6,0.2,1.9,1-1,0.4c0,0-13-3.1-38.5,3.4c0,0-12.6,3.9-22.6,8.8c0,0-15.6,7.4-32.3,7.8S40,180.5,30.7,170.3z"/>
			<path class="st0" d="M46,184c0,0,24.8,11.3,55.8,2.4c0,0,13.2-4,21.4-8c0,0,17.2-8.2,31.9-10.3c0,0,4.7-0.8,11-1.1
				c0,0,2.5,0,2.5-0.2c0-0.4-2.7-0.8-2.7-0.8s-19.6-3.8-43,6.5c0,0-23.1,10.4-35.1,12.6c0,0-12.8,4.1-40.1-1.3
				C47.9,183.8,46,183.3,46,184z"/>
			<path class="st2" d="M64,191.9c0,0,24.5,6.6,51.8-4.7c0,0,14.3-5.9,16.6-7c0,0,7.2-3.7,26.3-8.3c0,0,6.7-1.4,4.6-1.9
				c0,0-9.4-2.9-34,7.8c0,0-16.6,7.5-26.5,10c0,0-19.4,5.9-36.2,4C66.5,191.7,64.1,191.3,64,191.9z"/>
			<path class="st1" d="M180.9,9.8c-23.5-6.3-42.1-6.2-53.7-6.7c-12.6-0.5-19.5,0.5-19.8,0.6C69.7,9,45.4,24.2,43.8,25.4
				C18.5,41.7,11.5,61,11.3,62.5c-1.2,7.6,1.3,16.4,7.5,25.5c4.6,6.7,9.5,11.2,9.7,11.4l1.1,1l11.4-7.2l0.2-0.8
				c1.1-5.3,3.7-8.9,7.9-10.9c14.7-7.2,43.4,6.7,43.7,6.8l0.1,0.1c38.3,15.7,66.6,7.1,67.8,6.8l2.2-0.7l-1.1-2
				c-9.5-17.5-12-33.3-7.6-47c5.8-18.1,27-31.9,27.2-32l3.6-2.4L180.9,9.8z M150.5,44.1c-4.6,14.1-2.3,30.2,6.8,47.9
				c-2.9,0.7-8.6,1.7-16.3,1.9c-10.6,0.2-27.2-1.2-46.5-9.1c-1.9-0.9-30.8-14.7-47-6.8c-5.1,2.5-8.6,7.3-10,13.6l-7,4.2
				C26.5,92,12.8,77,15.1,63l0-0.2c0-0.1,6.3-18.6,30.8-34.3l0.1-0.1C46.2,28.3,64.9,13.1,97.6,9C104.4,8.2,116,6.9,135,7
				c10.8,0.3,24.5,1.3,40.6,5.4C169.9,16.1,155,30.2,150.5,44.1z"/>
		</g>
	</g>
</g>
</svg>
