<?xml version="1.0" encoding="utf-8"?><svg xmlns="http://www.w3.org/2000/svg" width="200" height="156" viewBox="0 0 200 156"><path class="st0" d="M140.6 6.7v34.6h7.6l-9.9 52L118 6.7H82L61.7 93.3l-9.9-52h7.6V6.7H6.5v34.6h9.7l23.9 107.5h37.1L100 62.5l22.8 86.3h37.1l23.9-107.5h9.7V6.7z" fill="#FFF"/><path class="st1" d="M134.2.2v47.1L123.1.2H76.9l-11 47.1V.2H0v47.5h11l23.9 107.5h47.3L100 87.7l17.8 67.5h47.3L189 47.8h11V.2h-65.8zm6.2 47.6l-2.8 14.5-3.4-14.5h6.2zm-74.7 0l-3.4 14.5-2.8-14.5h6.2zm127.8-6.5h-9.7l-23.9 107.5h-37.1L100 62.5l-22.8 86.3H40.1L16.2 41.3H6.5V6.7h52.9v34.6h-7.6l9.9 52L82 6.7h36l20.4 86.6 9.9-52h-7.6V6.7h52.9v34.6zm-24.8 107.9h2v6.1h.7v-6.1h2.1v-.7h-4.8zm8.7 4.8l-1.8-5.5h-1.1v6.8h.7v-5.8l1.8 5.8h.8l1.8-5.8v5.8h.7v-6.8h-1.2z" fill="#BA9459"/></svg>